<svg xmlns="http://www.w3.org/2000/svg" xmlns:xlink="http://www.w3.org/1999/xlink" width="2000" zoomAndPan="magnify" viewBox="0 0 1500 1001.249969" height="1335" preserveAspectRatio="xMidYMid meet" version="1.0"><defs><g/><clipPath id="4decf3283c"><path d="M 1086 1 L 1499.4375 1 L 1499.4375 573 L 1086 573 Z M 1086 1 " clip-rule="nonzero"/></clipPath><clipPath id="93ab99e4f7"><path d="M 0.5625 0 L 410 0 L 410 570 L 0.5625 570 Z M 0.5625 0 " clip-rule="nonzero"/></clipPath><clipPath id="e59d01f328"><path d="M 566 864 L 691 864 L 691 1000.5 L 566 1000.5 Z M 566 864 " clip-rule="nonzero"/></clipPath><clipPath id="f196f83bb9"><path d="M 1498 999 L 1499.4375 999 L 1499.4375 1000.5 L 1498 1000.5 Z M 1498 999 " clip-rule="nonzero"/></clipPath><clipPath id="76b5bac4fe"><path d="M 1 1 L 1.4375 1 L 1.4375 1.5 L 1 1.5 Z M 1 1 " clip-rule="nonzero"/></clipPath><clipPath id="01276171d1"><rect x="0" width="2" y="0" height="2"/></clipPath></defs><path fill="#faaf42" d="M 980.707031 846.144531 C 1012.792969 868.851562 1011.730469 910.117188 979.058594 930.761719 C 931.0625 964.570312 833.300781 870.210938 788.511719 844.601562 C 772.128906 830.398438 750.332031 851.121094 767.078125 867.003906 C 767.078125 867.003906 880.191406 944.617188 880.191406 944.617188 C 852.058594 1030.25 766.367188 982.011719 711.519531 954.964844 C 736.566406 903.371094 717.34375 842.9375 654.824219 830.519531 C 660.058594 767.625 643.84375 722.003906 571.191406 718.144531 C 585.832031 629.945312 484.863281 575.566406 426.929688 645.070312 C 402.257812 577.046875 324.597656 560.9375 280.671875 617.027344 L 220.46875 541.695312 C 211.894531 530.972656 204.601562 521.941406 212.285156 507.8125 L 401.472656 158.96875 C 487.238281 203.347656 495.390625 190.523438 572.550781 197.796875 C 572.550781 197.796875 467.03125 329.625 467.03125 329.625 C 404.601562 419.535156 553.992188 454.449219 613.847656 414.164062 C 702.035156 370.769531 660.253906 336.75 784.777344 330.578125 C 882.613281 406.453125 1091.28125 569.878906 1190.058594 647.144531 C 1213.429688 665.429688 1221.972656 695.515625 1208.117188 721.851562 C 1196.925781 743.105469 1161.574219 762.300781 1135.753906 744.101562 L 946.644531 610.871094 C 940.078125 606.226562 927.960938 610.28125 925.949219 614.484375 C 923.9375 618.691406 922.0625 630.09375 928.671875 634.9375 L 1095.167969 756.25 C 1120.519531 774.734375 1125.421875 806.484375 1111.640625 830.414062 C 1096.46875 856.734375 1059.304688 865.855469 1032.226562 846.539062 L 863.8125 726.328125 C 857.351562 721.730469 848.003906 721.761719 844.070312 724.347656 C 838.097656 728.28125 833.785156 742.5 842.511719 748.671875 L 980.738281 846.191406 L 980.738281 846.132812 Z M 980.707031 846.144531 " fill-opacity="1" fill-rule="nonzero"/><path fill="#faaf42" d="M 781.222656 298.265625 C 662.570312 316.539062 713.789062 305.058594 605.753906 381.476562 C 546.171875 416.902344 458.996094 391.734375 490.914062 351.617188 C 522.847656 314.164062 549.847656 275.652344 578.996094 235.886719 C 590.871094 219.683594 604.589844 205.527344 624.085938 197.871094 C 676.515625 181.371094 762.78125 132.238281 818.78125 135.75 C 883.855469 141.359375 945.507812 154.292969 1009.085938 167.558594 C 1038.234375 173.65625 1063.828125 167.605469 1095.851562 157.925781 L 1285.066406 508.765625 C 1287.714844 513.667969 1289.226562 524.484375 1285.1875 528.355469 L 1198.710938 611.113281 C 1181.222656 604.152344 793.730469 284.609375 781.25 298.28125 Z M 781.222656 298.265625 " fill-opacity="1" fill-rule="nonzero"/><g clip-path="url(#4decf3283c)"><path fill="#faaf42" d="M 1086.445312 79.832031 L 1229.59375 1.398438 L 1499.335938 493.679688 L 1356.1875 572.117188 Z M 1086.445312 79.832031 " fill-opacity="1" fill-rule="nonzero"/></g><g clip-path="url(#93ab99e4f7)"><path fill="#faaf42" d="M 0.503906 492.296875 L 266.6875 0.417969 L 409.523438 77.714844 L 143.34375 569.59375 Z M 0.503906 492.296875 " fill-opacity="1" fill-rule="nonzero"/></g><path fill="#faaf42" d="M 437.609375 839.808594 C 400.035156 891.523438 319.488281 844.574219 350.328125 786.667969 C 384.046875 739.535156 420.621094 693.898438 463.398438 654.917969 C 510.910156 620.113281 563.882812 691.039062 529.441406 730.050781 C 529.441406 730.050781 437.609375 839.808594 437.609375 839.808594 Z M 437.609375 839.808594 " fill-opacity="1" fill-rule="nonzero"/><path fill="#faaf42" d="M 536.824219 921.6875 C 499.492188 961.425781 430.800781 909.117188 460.539062 861.621094 C 487.042969 825.753906 514.921875 790.917969 547.167969 760.816406 C 595.042969 724.4375 648.320312 796.121094 609.355469 837.175781 C 586.769531 865.78125 563.355469 892.824219 536.839844 921.71875 L 536.824219 921.71875 Z M 536.824219 921.6875 " fill-opacity="1" fill-rule="nonzero"/><path fill="#faaf42" d="M 380.734375 626.738281 C 420.726562 676.851562 340.148438 745.101562 329.378906 751.320312 C 285.453125 776.988281 239.980469 717.917969 269.539062 678.304688 C 294 645.386719 338.304688 581.949219 380.75 626.765625 L 380.734375 626.765625 Z M 380.734375 626.738281 " fill-opacity="1" fill-rule="nonzero"/><g clip-path="url(#e59d01f328)"><path fill="#faaf42" d="M 649.363281 984.234375 C 599.582031 1033.5 535.070312 956.554688 583.472656 914.714844 C 598.207031 900.042969 607.84375 879.289062 626.992188 869.230469 C 644.355469 860.109375 663.765625 866.371094 674.851562 877.414062 C 709.386719 911.78125 682.597656 950.199219 649.363281 984.234375 Z M 649.363281 984.234375 " fill-opacity="1" fill-rule="nonzero"/></g><g clip-path="url(#f196f83bb9)"><g transform="matrix(1, 0, 0, 1, 1498, 999)"><g clip-path="url(#01276171d1)"><g clip-path="url(#76b5bac4fe)"><g fill="#000000" fill-opacity="1"><g transform="translate(1.174828, 1.26738)"><g><path d="M 0.125 0 C 0.113281 0 0.101562 -0.00390625 0.09375 -0.015625 C 0.0820312 -0.0234375 0.078125 -0.0351562 0.078125 -0.046875 C 0.078125 -0.0664062 0.0820312 -0.0820312 0.09375 -0.09375 C 0.101562 -0.101562 0.113281 -0.109375 0.125 -0.109375 C 0.144531 -0.109375 0.160156 -0.101562 0.171875 -0.09375 C 0.179688 -0.0820312 0.1875 -0.0664062 0.1875 -0.046875 C 0.1875 -0.0351562 0.179688 -0.0234375 0.171875 -0.015625 C 0.160156 -0.00390625 0.144531 0 0.125 0 Z M 0.125 0 "/></g></g></g></g></g></g></g></svg>
