<svg xmlns="http://www.w3.org/2000/svg" xmlns:xlink="http://www.w3.org/1999/xlink" width="2086" zoomAndPan="magnify" viewBox="0 0 1564.5 213.75" height="285" preserveAspectRatio="xMidYMid meet" version="1.0"><defs><clipPath id="904de8033a"><path d="M 28.304688 0 L 242.777344 0 L 242.777344 213.5 L 28.304688 213.5 Z M 28.304688 0 " clip-rule="nonzero"/></clipPath><clipPath id="4aeb10377b"><path d="M 135.339844 0 C 76.386719 0.0664062 28.605469 47.882812 28.605469 106.855469 C 28.605469 165.871094 76.445312 213.710938 135.460938 213.710938 C 194.386719 213.710938 242.183594 166.007812 242.316406 107.109375 L 242.316406 106.621094 C 242.1875 47.75 194.46875 0.0664062 135.589844 0 Z M 135.339844 0 " clip-rule="nonzero"/></clipPath><clipPath id="31552f3aa9"><path d="M 0.472656 0 L 214.542969 0 L 214.542969 213.5 L 0.472656 213.5 Z M 0.472656 0 " clip-rule="nonzero"/></clipPath><clipPath id="15b23c1525"><path d="M 107.339844 0 C 48.386719 0.0664062 0.605469 47.882812 0.605469 106.855469 C 0.605469 165.871094 48.445312 213.710938 107.460938 213.710938 C 166.386719 213.710938 214.183594 166.007812 214.316406 107.109375 L 214.316406 106.621094 C 214.1875 47.75 166.46875 0.0664062 107.589844 0 Z M 107.339844 0 " clip-rule="nonzero"/></clipPath><clipPath id="b9950a3a0c"><rect x="0" width="215" y="0" height="214"/></clipPath><clipPath id="3cf694f4ac"><path d="M 0.664062 44.082031 L 138.90625 44.082031 L 138.90625 170.375 L 0.664062 170.375 Z M 0.664062 44.082031 " clip-rule="nonzero"/></clipPath><clipPath id="47dbe318b2"><path d="M 72.429688 82.582031 C 72.429688 72.703125 80.4375 64.695312 90.328125 64.695312 L 138.5625 64.695312 L 138.5625 55.246094 C 138.5625 49.128906 133.605469 44.160156 127.476562 44.160156 L 11.75 44.160156 C 5.625 44.160156 0.664062 49.128906 0.664062 55.246094 L 0.664062 129.867188 C 0.664062 135.988281 5.625 140.957031 11.75 140.957031 L 27.835938 140.957031 L 27.722656 170.171875 L 55.890625 140.957031 L 72.429688 140.957031 Z M 72.429688 82.582031 " clip-rule="nonzero"/></clipPath><clipPath id="5914ed4ce2"><path d="M 0.664062 0.109375 L 138.742188 0.109375 L 138.742188 126.199219 L 0.664062 126.199219 Z M 0.664062 0.109375 " clip-rule="nonzero"/></clipPath><clipPath id="6ec4653d59"><path d="M 72.429688 38.582031 C 72.429688 28.703125 80.4375 20.695312 90.328125 20.695312 L 138.5625 20.695312 L 138.5625 11.246094 C 138.5625 5.128906 133.605469 0.160156 127.476562 0.160156 L 11.75 0.160156 C 5.625 0.160156 0.664062 5.128906 0.664062 11.246094 L 0.664062 85.867188 C 0.664062 91.988281 5.625 96.957031 11.75 96.957031 L 27.835938 96.957031 L 27.722656 126.171875 L 55.890625 96.957031 L 72.429688 96.957031 Z M 72.429688 38.582031 " clip-rule="nonzero"/></clipPath><clipPath id="99032c5189"><rect x="0" width="139" y="0" height="127"/></clipPath><clipPath id="1ec2b0d5b5"><path d="M 80.617188 73 L 218.867188 73 L 218.867188 199.519531 L 80.617188 199.519531 Z M 80.617188 73 " clip-rule="nonzero"/></clipPath><clipPath id="8bfa1725d9"><path d="M 207.570312 73.03125 L 91.855469 73.03125 C 85.734375 73.03125 80.769531 77.992188 80.769531 84.121094 L 80.769531 158.738281 C 80.769531 164.859375 85.726562 169.828125 91.855469 169.828125 L 163.433594 169.828125 L 191.601562 199.042969 L 191.488281 169.828125 L 207.570312 169.828125 C 213.691406 169.828125 218.660156 164.867188 218.660156 158.738281 L 218.660156 84.121094 C 218.660156 78 213.699219 73.03125 207.570312 73.03125 " clip-rule="nonzero"/></clipPath><clipPath id="ce6944c7d7"><path d="M 0.730469 0 L 138.808594 0 L 138.808594 126.207031 L 0.730469 126.207031 Z M 0.730469 0 " clip-rule="nonzero"/></clipPath><clipPath id="a41d5f5759"><path d="M 127.570312 0.03125 L 11.855469 0.03125 C 5.734375 0.03125 0.769531 4.992188 0.769531 11.121094 L 0.769531 85.738281 C 0.769531 91.859375 5.726562 96.828125 11.855469 96.828125 L 83.433594 96.828125 L 111.601562 126.042969 L 111.488281 96.828125 L 127.570312 96.828125 C 133.691406 96.828125 138.660156 91.867188 138.660156 85.738281 L 138.660156 11.121094 C 138.660156 5 133.699219 0.03125 127.570312 0.03125 " clip-rule="nonzero"/></clipPath><clipPath id="9be8d74b13"><rect x="0" width="139" y="0" height="127"/></clipPath><clipPath id="9e01208938"><path d="M 159.082031 26.144531 L 269.683594 26.144531 L 269.683594 125.535156 L 159.082031 125.535156 Z M 159.082031 26.144531 " clip-rule="nonzero"/></clipPath><clipPath id="d12fdbad88"><path d="M 172.414062 125.179688 C 167.832031 125.179688 163.734375 122.8125 161.441406 118.839844 C 159.148438 114.871094 159.148438 110.136719 161.441406 106.164062 L 203.609375 33.125 C 205.902344 29.15625 210 26.789062 214.582031 26.789062 C 219.167969 26.789062 223.265625 29.15625 225.558594 33.125 L 267.726562 106.164062 C 270.019531 110.136719 270.019531 114.871094 267.726562 118.839844 C 265.433594 122.8125 261.328125 125.179688 256.753906 125.179688 Z M 172.414062 125.179688 " clip-rule="nonzero"/></clipPath><clipPath id="01c87ab1de"><path d="M 0.117188 0.609375 L 110.683594 0.609375 L 110.683594 99.375 L 0.117188 99.375 Z M 0.117188 0.609375 " clip-rule="nonzero"/></clipPath><clipPath id="4573073686"><path d="M 13.414062 99.179688 C 8.832031 99.179688 4.734375 96.8125 2.441406 92.839844 C 0.148438 88.871094 0.148438 84.136719 2.441406 80.164062 L 44.609375 7.125 C 46.902344 3.15625 51 0.789062 55.582031 0.789062 C 60.167969 0.789062 64.265625 3.15625 66.558594 7.125 L 108.726562 80.164062 C 111.019531 84.136719 111.019531 88.871094 108.726562 92.839844 C 106.433594 96.8125 102.328125 99.179688 97.753906 99.179688 Z M 13.414062 99.179688 " clip-rule="nonzero"/></clipPath><clipPath id="3d12ba7153"><rect x="0" width="111" y="0" height="100"/></clipPath><clipPath id="271e660323"><path d="M 157 24 L 271.921875 24 L 271.921875 127.777344 L 157 127.777344 Z M 157 24 " clip-rule="nonzero"/></clipPath><clipPath id="e19120306d"><path d="M 214.589844 24.324219 C 209.117188 24.324219 204.214844 27.15625 201.480469 31.890625 L 180.394531 68.417969 L 159.304688 104.9375 C 156.570312 109.671875 156.570312 115.335938 159.304688 120.078125 C 162.039062 124.820312 166.941406 127.644531 172.414062 127.644531 L 256.753906 127.644531 C 262.222656 127.644531 267.128906 124.8125 269.863281 120.078125 C 272.597656 115.34375 272.597656 109.679688 269.863281 104.9375 L 248.78125 68.417969 L 227.695312 31.898438 C 224.960938 27.15625 220.058594 24.332031 214.582031 24.332031 M 214.582031 29.261719 C 218.023438 29.261719 221.460938 30.960938 223.421875 34.363281 L 244.511719 70.882812 L 265.597656 107.402344 C 269.523438 114.203125 264.617188 122.714844 256.757812 122.714844 L 172.414062 122.714844 C 164.558594 122.714844 159.644531 114.210938 163.574219 107.402344 L 184.664062 70.882812 L 205.75 34.363281 C 207.714844 30.960938 211.152344 29.261719 214.589844 29.261719 " clip-rule="nonzero"/></clipPath><clipPath id="d466ce21c6"><path d="M 0 0.210938 L 114.921875 0.210938 L 114.921875 103.769531 L 0 103.769531 Z M 0 0.210938 " clip-rule="nonzero"/></clipPath><clipPath id="a370f3636c"><path d="M 57.589844 0.324219 C 52.117188 0.324219 47.214844 3.15625 44.480469 7.890625 L 23.394531 44.417969 L 2.304688 80.9375 C -0.429688 85.671875 -0.429688 91.335938 2.304688 96.078125 C 5.039062 100.820312 9.941406 103.644531 15.414062 103.644531 L 99.753906 103.644531 C 105.222656 103.644531 110.128906 100.8125 112.863281 96.078125 C 115.597656 91.34375 115.597656 85.679688 112.863281 80.9375 L 91.78125 44.417969 L 70.695312 7.898438 C 67.960938 3.15625 63.058594 0.332031 57.582031 0.332031 M 57.582031 5.261719 C 61.023438 5.261719 64.460938 6.960938 66.421875 10.363281 L 87.511719 46.882812 L 108.597656 83.402344 C 112.523438 90.203125 107.617188 98.714844 99.757812 98.714844 L 15.414062 98.714844 C 7.558594 98.714844 2.644531 90.210938 6.574219 83.402344 L 27.664062 46.882812 L 48.75 10.363281 C 50.714844 6.960938 54.152344 5.261719 57.589844 5.261719 " clip-rule="nonzero"/></clipPath><clipPath id="751790c00e"><rect x="0" width="115" y="0" height="104"/></clipPath><clipPath id="7de175e142"><path d="M 167 34.367188 L 262.207031 34.367188 L 262.207031 118.8125 L 167 118.8125 Z M 167 34.367188 " clip-rule="nonzero"/></clipPath><clipPath id="d2b7d0eb2d"><path d="M 209.40625 37.515625 C 211.714844 33.523438 217.46875 33.523438 219.773438 37.515625 L 240.503906 73.414062 L 261.230469 109.3125 C 263.539062 113.304688 260.65625 118.285156 256.046875 118.285156 L 173.136719 118.285156 C 168.527344 118.285156 165.652344 113.296875 167.949219 109.3125 L 188.679688 73.414062 Z M 209.40625 37.515625 " clip-rule="nonzero"/></clipPath><clipPath id="fb4c30ff28"><path d="M 0 0.367188 L 95.207031 0.367188 L 95.207031 84.421875 L 0 84.421875 Z M 0 0.367188 " clip-rule="nonzero"/></clipPath><clipPath id="3fd0e0994e"><path d="M 42.40625 3.515625 C 44.714844 -0.476562 50.46875 -0.476562 52.773438 3.515625 L 73.503906 39.414062 L 94.230469 75.3125 C 96.539062 79.304688 93.65625 84.285156 89.046875 84.285156 L 6.136719 84.285156 C 1.527344 84.285156 -1.347656 79.296875 0.949219 75.3125 L 21.679688 39.414062 Z M 42.40625 3.515625 " clip-rule="nonzero"/></clipPath><clipPath id="31952ed622"><rect x="0" width="96" y="0" height="85"/></clipPath><clipPath id="8fa8086762"><path d="M 208 61.269531 L 221.109375 61.269531 L 221.109375 106 L 208 106 Z M 208 61.269531 " clip-rule="nonzero"/></clipPath><clipPath id="223376bcbc"><path d="M 210.957031 88.980469 L 209.398438 70.964844 L 209.011719 61.375 L 220.15625 61.375 L 219.769531 70.964844 L 218.210938 88.980469 Z M 214.582031 105.574219 C 212.679688 105.574219 211.128906 104.929688 209.917969 103.625 C 208.703125 102.324219 208.105469 100.734375 208.105469 98.832031 C 208.105469 96.929688 208.710938 95.332031 209.917969 94.039062 C 211.121094 92.742188 212.679688 92.089844 214.582031 92.089844 C 216.488281 92.089844 218.039062 92.742188 219.25 94.039062 C 220.464844 95.332031 221.0625 96.929688 221.0625 98.832031 C 221.0625 100.734375 220.457031 102.332031 219.25 103.625 C 218.042969 104.921875 216.488281 105.574219 214.582031 105.574219 " clip-rule="nonzero"/></clipPath><clipPath id="cb84b73509"><path d="M 0.0234375 0.367188 L 13.109375 0.367188 L 13.109375 44.714844 L 0.0234375 44.714844 Z M 0.0234375 0.367188 " clip-rule="nonzero"/></clipPath><clipPath id="28962949ee"><path d="M 2.957031 27.980469 L 1.398438 9.964844 L 1.011719 0.375 L 12.15625 0.375 L 11.769531 9.964844 L 10.210938 27.980469 Z M 6.582031 44.574219 C 4.679688 44.574219 3.128906 43.929688 1.917969 42.625 C 0.703125 41.324219 0.105469 39.734375 0.105469 37.832031 C 0.105469 35.929688 0.710938 34.332031 1.917969 33.039062 C 3.121094 31.742188 4.679688 31.089844 6.582031 31.089844 C 8.488281 31.089844 10.039062 31.742188 11.25 33.039062 C 12.464844 34.332031 13.0625 35.929688 13.0625 37.832031 C 13.0625 39.734375 12.457031 41.332031 11.25 42.625 C 10.042969 43.921875 8.488281 44.574219 6.582031 44.574219 " clip-rule="nonzero"/></clipPath><clipPath id="5798d98c12"><rect x="0" width="14" y="0" height="45"/></clipPath><clipPath id="771518f790"><path d="M 302 54.15625 L 404.78125 54.15625 L 404.78125 157.910156 L 302 157.910156 Z M 302 54.15625 " clip-rule="nonzero"/></clipPath><clipPath id="ccafe59ef2"><path d="M 372.710938 119.878906 L 353.476562 72.511719 L 353.183594 72.511719 L 333.652344 119.878906 Z M 347.648438 54.441406 L 360.320312 54.441406 L 404.484375 157.625 L 388.160156 157.625 L 377.8125 132.117188 L 328.703125 132.117188 L 318.5 157.625 L 302.175781 157.625 Z M 347.648438 54.441406 " clip-rule="nonzero"/></clipPath><clipPath id="48f8c0cc1d"><path d="M 0 0.417969 L 102.589844 0.417969 L 102.589844 103.734375 L 0 103.734375 Z M 0 0.417969 " clip-rule="nonzero"/></clipPath><clipPath id="cd86ca693a"><path d="M 70.710938 65.878906 L 51.476562 18.511719 L 51.183594 18.511719 L 31.652344 65.878906 Z M 45.648438 0.441406 L 58.320312 0.441406 L 102.484375 103.625 L 86.160156 103.625 L 75.8125 78.117188 L 26.703125 78.117188 L 16.5 103.625 L 0.175781 103.625 Z M 45.648438 0.441406 " clip-rule="nonzero"/></clipPath><clipPath id="679f2c90e2"><rect x="0" width="103" y="0" height="104"/></clipPath><clipPath id="365b09fca6"><path d="M 411 86.578125 L 472.65625 86.578125 L 472.65625 157.910156 L 411 157.910156 Z M 411 86.578125 " clip-rule="nonzero"/></clipPath><clipPath id="7d7a17c6c8"><path d="M 411.1875 88.542969 L 424.304688 88.542969 L 424.304688 99.179688 L 424.597656 99.179688 C 426.253906 95.488281 429.113281 92.496094 433.195312 90.21875 C 437.28125 87.941406 441.992188 86.796875 447.332031 86.796875 C 450.636719 86.796875 453.820312 87.304688 456.875 88.324219 C 459.933594 89.34375 462.605469 90.925781 464.890625 93.058594 C 467.175781 95.195312 468.996094 97.945312 470.351562 101.292969 C 471.710938 104.640625 472.390625 108.601562 472.390625 113.171875 L 472.390625 157.625 L 459.28125 157.625 L 459.28125 116.820312 C 459.28125 113.613281 458.847656 110.875 457.96875 108.589844 C 457.09375 106.304688 455.933594 104.460938 454.472656 103.050781 C 453.011719 101.644531 451.339844 100.625 449.445312 99.988281 C 447.550781 99.351562 445.585938 99.042969 443.542969 99.042969 C 440.824219 99.042969 438.296875 99.480469 435.960938 100.355469 C 433.625 101.230469 431.585938 102.609375 429.839844 104.503906 C 428.09375 106.402344 426.730469 108.804688 425.757812 111.71875 C 424.785156 114.632812 424.296875 118.085938 424.296875 122.066406 L 424.296875 157.625 L 411.1875 157.625 Z M 411.1875 88.542969 " clip-rule="nonzero"/></clipPath><clipPath id="e0f10a8bb9"><path d="M 0.0625 0.777344 L 61.433594 0.777344 L 61.433594 71.734375 L 0.0625 71.734375 Z M 0.0625 0.777344 " clip-rule="nonzero"/></clipPath><clipPath id="6ff0787c49"><path d="M 0.1875 2.542969 L 13.304688 2.542969 L 13.304688 13.179688 L 13.597656 13.179688 C 15.253906 9.488281 18.113281 6.496094 22.195312 4.21875 C 26.28125 1.941406 30.992188 0.796875 36.332031 0.796875 C 39.636719 0.796875 42.820312 1.304688 45.875 2.324219 C 48.933594 3.34375 51.605469 4.925781 53.890625 7.058594 C 56.175781 9.195312 57.996094 11.945312 59.351562 15.292969 C 60.710938 18.640625 61.390625 22.601562 61.390625 27.171875 L 61.390625 71.625 L 48.28125 71.625 L 48.28125 30.820312 C 48.28125 27.613281 47.847656 24.875 46.96875 22.589844 C 46.09375 20.304688 44.933594 18.460938 43.472656 17.050781 C 42.011719 15.644531 40.339844 14.625 38.445312 13.988281 C 36.550781 13.351562 34.585938 13.042969 32.542969 13.042969 C 29.824219 13.042969 27.296875 13.480469 24.960938 14.355469 C 22.625 15.230469 20.585938 16.609375 18.839844 18.503906 C 17.09375 20.402344 15.730469 22.804688 14.757812 25.71875 C 13.785156 28.632812 13.296875 32.085938 13.296875 36.066406 L 13.296875 71.625 L 0.1875 71.625 Z M 0.1875 2.542969 " clip-rule="nonzero"/></clipPath><clipPath id="15b57b4ea6"><rect x="0" width="62" y="0" height="72"/></clipPath><clipPath id="6b52798352"><path d="M 485.511719 86.796875 L 545.992188 86.796875 L 545.992188 159.5625 L 485.511719 159.5625 Z M 485.511719 86.796875 " clip-rule="nonzero"/></clipPath><clipPath id="16d2aac531"><path d="M 526.175781 124.394531 C 523.066406 124.394531 519.882812 124.566406 516.632812 124.90625 C 513.378906 125.242188 510.414062 125.902344 507.738281 126.875 C 505.066406 127.847656 502.878906 129.203125 501.175781 130.957031 C 499.476562 132.710938 498.628906 134.941406 498.628906 137.660156 C 498.628906 141.648438 499.964844 144.507812 502.636719 146.261719 C 505.3125 148.015625 508.929688 148.882812 513.492188 148.882812 C 517.089844 148.882812 520.144531 148.277344 522.675781 147.0625 C 525.207031 145.851562 527.246094 144.269531 528.796875 142.328125 C 530.347656 140.390625 531.472656 138.222656 532.144531 135.839844 C 532.820312 133.460938 533.164062 131.105469 533.164062 128.769531 L 533.164062 124.394531 Z M 489.152344 97 C 492.847656 93.597656 497.125 91.042969 501.980469 89.34375 C 506.832031 87.644531 511.695312 86.796875 516.554688 86.796875 C 521.605469 86.796875 525.957031 87.425781 529.597656 88.691406 C 533.238281 89.957031 536.226562 91.660156 538.558594 93.792969 C 540.886719 95.929688 542.609375 98.386719 543.734375 101.148438 C 544.859375 103.914062 545.414062 106.8125 545.414062 109.824219 L 545.414062 145.09375 C 545.414062 147.519531 545.457031 149.761719 545.554688 151.796875 C 545.652344 153.835938 545.792969 155.785156 545.988281 157.625 L 534.332031 157.625 C 534.042969 154.128906 533.898438 150.628906 533.898438 147.132812 L 533.605469 147.132812 C 530.691406 151.601562 527.238281 154.757812 523.261719 156.601562 C 519.285156 158.441406 514.660156 159.371094 509.417969 159.371094 C 506.210938 159.371094 503.148438 158.9375 500.234375 158.0625 C 497.320312 157.183594 494.773438 155.875 492.585938 154.128906 C 490.398438 152.382812 488.675781 150.21875 487.40625 147.640625 C 486.140625 145.0625 485.511719 142.082031 485.511719 138.679688 C 485.511719 134.207031 486.507812 130.46875 488.5 127.457031 C 490.496094 124.449219 493.214844 121.996094 496.660156 120.101562 C 500.105469 118.207031 504.144531 116.84375 508.757812 116.011719 C 513.371094 115.179688 518.300781 114.777344 523.554688 114.777344 L 533.164062 114.777344 L 533.164062 111.863281 C 533.164062 110.117188 532.820312 108.363281 532.144531 106.617188 C 531.472656 104.871094 530.445312 103.292969 529.082031 101.882812 C 527.71875 100.476562 526.027344 99.359375 523.980469 98.527344 C 521.933594 97.695312 519.507812 97.292969 516.691406 97.292969 C 514.167969 97.292969 511.957031 97.539062 510.0625 98.019531 C 508.167969 98.496094 506.441406 99.113281 504.886719 99.839844 C 503.328125 100.566406 501.917969 101.417969 500.660156 102.386719 C 499.402344 103.351562 498.179688 104.28125 497.019531 105.15625 Z M 489.152344 97 " clip-rule="nonzero"/></clipPath><clipPath id="01379c7127"><path d="M 0.511719 0.796875 L 60.992188 0.796875 L 60.992188 73.414062 L 0.511719 73.414062 Z M 0.511719 0.796875 " clip-rule="nonzero"/></clipPath><clipPath id="8f1f72ea9c"><path d="M 41.175781 38.394531 C 38.066406 38.394531 34.882812 38.566406 31.632812 38.90625 C 28.378906 39.242188 25.414062 39.902344 22.738281 40.875 C 20.066406 41.847656 17.878906 43.203125 16.175781 44.957031 C 14.476562 46.710938 13.628906 48.941406 13.628906 51.660156 C 13.628906 55.648438 14.964844 58.507812 17.636719 60.261719 C 20.3125 62.015625 23.929688 62.882812 28.492188 62.882812 C 32.089844 62.882812 35.144531 62.277344 37.675781 61.0625 C 40.207031 59.851562 42.246094 58.269531 43.796875 56.328125 C 45.347656 54.390625 46.472656 52.222656 47.144531 49.839844 C 47.820312 47.460938 48.164062 45.105469 48.164062 42.769531 L 48.164062 38.394531 Z M 4.152344 11 C 7.847656 7.597656 12.125 5.042969 16.980469 3.34375 C 21.832031 1.644531 26.695312 0.796875 31.554688 0.796875 C 36.605469 0.796875 40.957031 1.425781 44.597656 2.691406 C 48.238281 3.957031 51.226562 5.660156 53.558594 7.792969 C 55.886719 9.929688 57.609375 12.386719 58.734375 15.148438 C 59.859375 17.914062 60.414062 20.8125 60.414062 23.824219 L 60.414062 59.09375 C 60.414062 61.519531 60.457031 63.761719 60.554688 65.796875 C 60.652344 67.835938 60.792969 69.785156 60.988281 71.625 L 49.332031 71.625 C 49.042969 68.128906 48.898438 64.628906 48.898438 61.132812 L 48.605469 61.132812 C 45.691406 65.601562 42.238281 68.757812 38.261719 70.601562 C 34.285156 72.441406 29.660156 73.371094 24.417969 73.371094 C 21.210938 73.371094 18.148438 72.9375 15.234375 72.0625 C 12.320312 71.183594 9.773438 69.875 7.585938 68.128906 C 5.398438 66.382812 3.675781 64.21875 2.40625 61.640625 C 1.140625 59.0625 0.511719 56.082031 0.511719 52.679688 C 0.511719 48.207031 1.507812 44.46875 3.5 41.457031 C 5.496094 38.449219 8.214844 35.996094 11.660156 34.101562 C 15.105469 32.207031 19.144531 30.84375 23.757812 30.011719 C 28.371094 29.179688 33.300781 28.777344 38.554688 28.777344 L 48.164062 28.777344 L 48.164062 25.863281 C 48.164062 24.117188 47.820312 22.363281 47.144531 20.617188 C 46.472656 18.871094 45.445312 17.292969 44.082031 15.882812 C 42.71875 14.476562 41.027344 13.359375 38.980469 12.527344 C 36.933594 11.695312 34.507812 11.292969 31.691406 11.292969 C 29.167969 11.292969 26.957031 11.539062 25.0625 12.019531 C 23.167969 12.496094 21.441406 13.113281 19.886719 13.839844 C 18.328125 14.566406 16.917969 15.417969 15.660156 16.386719 C 14.402344 17.351562 13.179688 18.28125 12.019531 19.15625 Z M 4.152344 11 " clip-rule="nonzero"/></clipPath><clipPath id="61d0d4e181"><rect x="0" width="61" y="0" height="74"/></clipPath><clipPath id="5feee760f8"><path d="M 562.167969 47.445312 L 575.285156 47.445312 L 575.285156 157.621094 L 562.167969 157.621094 Z M 562.167969 47.445312 " clip-rule="nonzero"/></clipPath><clipPath id="b8f036f9d2"><path d="M 0.167969 0.445312 L 13.285156 0.445312 L 13.285156 110.621094 L 0.167969 110.621094 Z M 0.167969 0.445312 " clip-rule="nonzero"/></clipPath><clipPath id="620f76e93b"><rect x="0" width="14" y="0" height="111"/></clipPath><clipPath id="74525836af"><path d="M 584.40625 88.363281 L 654.332031 88.363281 L 654.332031 192.804688 L 584.40625 192.804688 Z M 584.40625 88.363281 " clip-rule="nonzero"/></clipPath><clipPath id="d1f7c34c12"><path d="M 584.613281 88.542969 L 599.765625 88.542969 L 620.226562 142.472656 L 620.519531 142.472656 L 640.136719 88.542969 L 654.132812 88.542969 L 621.335938 172.488281 C 620.171875 175.5 618.960938 178.242188 617.707031 180.722656 C 616.457031 183.199219 614.953125 185.3125 613.214844 187.058594 C 611.476562 188.804688 609.371094 190.167969 606.898438 191.140625 C 604.425781 192.117188 601.40625 192.601562 597.828125 192.601562 C 595.894531 192.601562 593.929688 192.484375 591.945312 192.234375 C 589.960938 191.988281 588.050781 191.480469 586.214844 190.707031 L 587.8125 178.757812 C 590.417969 179.832031 593.023438 180.363281 595.632812 180.363281 C 597.660156 180.363281 599.371094 180.09375 600.769531 179.558594 C 602.171875 179.027344 603.378906 178.25 604.390625 177.230469 C 605.398438 176.210938 606.246094 175.019531 606.921875 173.65625 C 607.59375 172.292969 608.269531 170.742188 608.945312 168.992188 L 613.191406 158.0625 Z M 584.613281 88.542969 " clip-rule="nonzero"/></clipPath><clipPath id="cb3d8cb4e2"><path d="M 0.40625 0.457031 L 70.140625 0.457031 L 70.140625 104.734375 L 0.40625 104.734375 Z M 0.40625 0.457031 " clip-rule="nonzero"/></clipPath><clipPath id="08f908ed78"><path d="M 0.613281 0.542969 L 15.765625 0.542969 L 36.226562 54.472656 L 36.519531 54.472656 L 56.136719 0.542969 L 70.132812 0.542969 L 37.335938 84.488281 C 36.171875 87.5 34.960938 90.242188 33.707031 92.722656 C 32.457031 95.199219 30.953125 97.3125 29.214844 99.058594 C 27.476562 100.804688 25.371094 102.167969 22.898438 103.140625 C 20.425781 104.117188 17.40625 104.601562 13.828125 104.601562 C 11.894531 104.601562 9.929688 104.484375 7.945312 104.234375 C 5.960938 103.988281 4.050781 103.480469 2.214844 102.707031 L 3.8125 90.757812 C 6.417969 91.832031 9.023438 92.363281 11.632812 92.363281 C 13.660156 92.363281 15.371094 92.09375 16.769531 91.558594 C 18.171875 91.027344 19.378906 90.25 20.390625 89.230469 C 21.398438 88.210938 22.246094 87.019531 22.921875 85.65625 C 23.59375 84.292969 24.269531 82.742188 24.945312 80.992188 L 29.191406 70.0625 Z M 0.613281 0.542969 " clip-rule="nonzero"/></clipPath><clipPath id="55bf4fd3ca"><rect x="0" width="71" y="0" height="105"/></clipPath><clipPath id="ce324720e3"><path d="M 656.101562 86.589844 L 711.421875 86.589844 L 711.421875 159.613281 L 656.101562 159.613281 Z M 656.101562 86.589844 " clip-rule="nonzero"/></clipPath><clipPath id="0e7e84e3e8"><path d="M 699.019531 105.890625 C 697.460938 103.953125 695.542969 102.316406 693.265625 101.007812 C 690.988281 99.695312 688.1875 99.039062 684.890625 99.039062 C 681.78125 99.039062 679.085938 99.695312 676.800781 101.007812 C 674.515625 102.316406 673.375 104.234375 673.375 106.769531 C 673.375 108.804688 674.035156 110.460938 675.347656 111.71875 C 676.65625 112.976562 678.207031 114.003906 680.003906 114.785156 C 681.804688 115.5625 683.722656 116.148438 685.757812 116.527344 C 687.796875 116.910156 689.550781 117.253906 691.003906 117.546875 C 693.820312 118.230469 696.472656 119.054688 698.945312 120.027344 C 701.414062 121 703.558594 122.261719 705.355469 123.816406 C 707.152344 125.375 708.5625 127.265625 709.582031 129.503906 C 710.601562 131.742188 711.109375 134.457031 711.109375 137.660156 C 711.109375 141.550781 710.285156 144.875 708.628906 147.648438 C 706.972656 150.417969 704.839844 152.675781 702.21875 154.425781 C 699.59375 156.179688 696.605469 157.4375 693.25 158.21875 C 689.894531 158.996094 686.523438 159.386719 683.121094 159.386719 C 677.390625 159.386719 672.355469 158.511719 668.035156 156.765625 C 663.710938 155.019531 659.847656 151.8125 656.445312 147.144531 L 666.355469 138.980469 C 668.492188 141.121094 670.875 143.011719 673.496094 144.667969 C 676.117188 146.320312 679.324219 147.144531 683.113281 147.144531 C 684.761719 147.144531 686.441406 146.980469 688.140625 146.636719 C 689.839844 146.292969 691.347656 145.761719 692.660156 145.035156 C 693.96875 144.308594 695.039062 143.386719 695.863281 142.261719 C 696.6875 141.136719 697.101562 139.855469 697.101562 138.394531 C 697.101562 136.457031 696.492188 134.851562 695.28125 133.585938 C 694.066406 132.320312 692.605469 131.332031 690.90625 130.597656 C 689.203125 129.863281 687.40625 129.285156 685.511719 128.851562 C 683.617188 128.417969 681.9375 128.050781 680.484375 127.757812 C 677.667969 127.078125 674.992188 126.296875 672.46875 125.429688 C 669.945312 124.558594 667.703125 123.390625 665.765625 121.929688 C 663.824219 120.46875 662.265625 118.625 661.097656 116.394531 C 659.929688 114.160156 659.34375 111.390625 659.34375 108.085938 C 659.34375 104.492188 660.09375 101.359375 661.605469 98.683594 C 663.121094 96.011719 665.105469 93.800781 667.585938 92.054688 C 670.066406 90.308594 672.882812 88.992188 676.035156 88.121094 C 679.1875 87.253906 682.402344 86.796875 685.609375 86.796875 C 690.269531 86.796875 694.742188 87.671875 699.019531 89.417969 C 703.296875 91.164062 706.691406 94.085938 709.222656 98.160156 Z M 699.019531 105.890625 " clip-rule="nonzero"/></clipPath><clipPath id="1b196e285d"><path d="M 0.296875 0.777344 L 55.191406 0.777344 L 55.191406 73.414062 L 0.296875 73.414062 Z M 0.296875 0.777344 " clip-rule="nonzero"/></clipPath><clipPath id="9a0c517a8f"><path d="M 43.019531 19.890625 C 41.460938 17.953125 39.542969 16.316406 37.265625 15.007812 C 34.988281 13.695312 32.1875 13.039062 28.890625 13.039062 C 25.78125 13.039062 23.085938 13.695312 20.800781 15.007812 C 18.515625 16.316406 17.375 18.234375 17.375 20.769531 C 17.375 22.804688 18.035156 24.460938 19.347656 25.71875 C 20.65625 26.976562 22.207031 28.003906 24.003906 28.785156 C 25.804688 29.5625 27.722656 30.148438 29.757812 30.527344 C 31.796875 30.910156 33.550781 31.253906 35.003906 31.546875 C 37.820312 32.230469 40.472656 33.054688 42.945312 34.027344 C 45.414062 35 47.558594 36.261719 49.355469 37.816406 C 51.152344 39.375 52.5625 41.265625 53.582031 43.503906 C 54.601562 45.742188 55.109375 48.457031 55.109375 51.660156 C 55.109375 55.550781 54.285156 58.875 52.628906 61.648438 C 50.972656 64.417969 48.839844 66.675781 46.21875 68.425781 C 43.59375 70.179688 40.605469 71.4375 37.25 72.21875 C 33.894531 72.996094 30.523438 73.386719 27.121094 73.386719 C 21.390625 73.386719 16.355469 72.511719 12.035156 70.765625 C 7.710938 69.019531 3.847656 65.8125 0.445312 61.144531 L 10.355469 52.980469 C 12.492188 55.121094 14.875 57.011719 17.496094 58.667969 C 20.117188 60.320312 23.324219 61.144531 27.113281 61.144531 C 28.761719 61.144531 30.441406 60.980469 32.140625 60.636719 C 33.839844 60.292969 35.347656 59.761719 36.660156 59.035156 C 37.96875 58.308594 39.039062 57.386719 39.863281 56.261719 C 40.6875 55.136719 41.101562 53.855469 41.101562 52.394531 C 41.101562 50.457031 40.492188 48.851562 39.28125 47.585938 C 38.066406 46.320312 36.605469 45.332031 34.90625 44.597656 C 33.203125 43.863281 31.40625 43.285156 29.511719 42.851562 C 27.617188 42.417969 25.9375 42.050781 24.484375 41.757812 C 21.667969 41.078125 18.992188 40.296875 16.46875 39.429688 C 13.945312 38.558594 11.703125 37.390625 9.765625 35.929688 C 7.824219 34.46875 6.265625 32.625 5.097656 30.394531 C 3.929688 28.160156 3.34375 25.390625 3.34375 22.085938 C 3.34375 18.492188 4.09375 15.359375 5.605469 12.683594 C 7.121094 10.011719 9.105469 7.800781 11.585938 6.054688 C 14.066406 4.308594 16.882812 2.992188 20.035156 2.121094 C 23.1875 1.253906 26.402344 0.796875 29.609375 0.796875 C 34.269531 0.796875 38.742188 1.671875 43.019531 3.417969 C 47.296875 5.164062 50.691406 8.085938 53.222656 12.160156 Z M 43.019531 19.890625 " clip-rule="nonzero"/></clipPath><clipPath id="3bc48b1b5a"><rect x="0" width="56" y="0" height="74"/></clipPath><clipPath id="a225384942"><path d="M 719.5625 86.796875 L 788.933594 86.796875 L 788.933594 159.417969 L 719.5625 159.417969 Z M 719.5625 86.796875 " clip-rule="nonzero"/></clipPath><clipPath id="4c29c23070"><path d="M 774.945312 117.398438 C 774.847656 114.484375 774.382812 111.808594 773.558594 109.382812 C 772.734375 106.957031 771.492188 104.84375 769.84375 103.046875 C 768.195312 101.246094 766.128906 99.839844 763.648438 98.820312 C 761.167969 97.800781 758.277344 97.292969 754.972656 97.292969 C 751.769531 97.292969 748.832031 97.898438 746.15625 99.113281 C 743.484375 100.324219 741.226562 101.90625 739.378906 103.847656 C 737.527344 105.785156 736.097656 107.953125 735.078125 110.332031 C 734.058594 112.714844 733.550781 115.070312 733.550781 117.398438 Z M 733.558594 127.894531 C 733.558594 130.90625 734.214844 133.648438 735.527344 136.125 C 736.835938 138.605469 738.5625 140.71875 740.703125 142.464844 C 742.847656 144.210938 745.316406 145.574219 748.132812 146.546875 C 750.953125 147.519531 753.867188 148.007812 756.875 148.007812 C 760.960938 148.007812 764.503906 147.0625 767.515625 145.167969 C 770.527344 143.273438 773.289062 140.769531 775.824219 137.660156 L 785.726562 145.234375 C 778.445312 154.660156 768.242188 159.371094 755.125 159.371094 C 749.679688 159.371094 744.75 158.449219 740.328125 156.601562 C 735.910156 154.75 732.171875 152.210938 729.105469 148.953125 C 726.042969 145.691406 723.691406 141.863281 722.042969 137.4375 C 720.394531 133.011719 719.5625 128.238281 719.5625 123.085938 C 719.5625 117.929688 720.460938 113.152344 722.261719 108.730469 C 724.058594 104.3125 726.53125 100.476562 729.691406 97.21875 C 732.851562 93.957031 736.613281 91.410156 740.988281 89.566406 C 745.363281 87.726562 750.121094 86.796875 755.265625 86.796875 C 761.386719 86.796875 766.5625 87.867188 770.789062 90.003906 C 775.011719 92.136719 778.488281 94.933594 781.207031 98.386719 C 783.929688 101.839844 785.898438 105.71875 787.113281 110.042969 C 788.324219 114.363281 788.933594 118.761719 788.933594 123.234375 L 788.933594 127.902344 Z M 733.558594 127.894531 " clip-rule="nonzero"/></clipPath><clipPath id="8a78c4611b"><path d="M 0.5625 0.796875 L 69.933594 0.796875 L 69.933594 73.414062 L 0.5625 73.414062 Z M 0.5625 0.796875 " clip-rule="nonzero"/></clipPath><clipPath id="d2db07cb1e"><path d="M 55.945312 31.398438 C 55.847656 28.484375 55.382812 25.808594 54.558594 23.382812 C 53.734375 20.957031 52.492188 18.84375 50.84375 17.046875 C 49.195312 15.246094 47.128906 13.839844 44.648438 12.820312 C 42.167969 11.800781 39.277344 11.292969 35.972656 11.292969 C 32.769531 11.292969 29.832031 11.898438 27.15625 13.113281 C 24.484375 14.324219 22.226562 15.90625 20.378906 17.847656 C 18.527344 19.785156 17.097656 21.953125 16.078125 24.332031 C 15.058594 26.714844 14.550781 29.070312 14.550781 31.398438 Z M 14.558594 41.894531 C 14.558594 44.90625 15.214844 47.648438 16.527344 50.125 C 17.835938 52.605469 19.5625 54.71875 21.703125 56.464844 C 23.847656 58.210938 26.316406 59.574219 29.132812 60.546875 C 31.953125 61.519531 34.867188 62.007812 37.875 62.007812 C 41.960938 62.007812 45.503906 61.0625 48.515625 59.167969 C 51.527344 57.273438 54.289062 54.769531 56.824219 51.660156 L 66.726562 59.234375 C 59.445312 68.660156 49.242188 73.371094 36.125 73.371094 C 30.679688 73.371094 25.75 72.449219 21.328125 70.601562 C 16.910156 68.75 13.171875 66.210938 10.105469 62.953125 C 7.042969 59.691406 4.691406 55.863281 3.042969 51.4375 C 1.394531 47.011719 0.5625 42.238281 0.5625 37.085938 C 0.5625 31.929688 1.460938 27.152344 3.261719 22.730469 C 5.058594 18.3125 7.53125 14.476562 10.691406 11.21875 C 13.851562 7.957031 17.613281 5.410156 21.988281 3.566406 C 26.363281 1.726562 31.121094 0.796875 36.265625 0.796875 C 42.386719 0.796875 47.5625 1.867188 51.789062 4.003906 C 56.011719 6.136719 59.488281 8.933594 62.207031 12.386719 C 64.929688 15.839844 66.898438 19.71875 68.113281 24.042969 C 69.324219 28.363281 69.933594 32.761719 69.933594 37.234375 L 69.933594 41.902344 Z M 14.558594 41.894531 " clip-rule="nonzero"/></clipPath><clipPath id="90ae02cd3a"><rect x="0" width="70" y="0" height="74"/></clipPath><clipPath id="4de6f6a7b6"><path d="M 807.003906 52.695312 L 903.921875 52.695312 L 903.921875 160.585938 L 807.003906 160.585938 Z M 807.003906 52.695312 " clip-rule="nonzero"/></clipPath><clipPath id="2f6550af7d"><path d="M 858.597656 76.011719 C 858.597656 72.613281 857.429688 69.914062 855.097656 67.921875 C 852.769531 65.929688 849.757812 64.933594 846.066406 64.933594 C 842.371094 64.933594 839.164062 65.984375 836.445312 68.066406 C 833.726562 70.148438 832.363281 73.144531 832.363281 77.023438 C 832.363281 78.769531 832.679688 80.425781 833.308594 81.984375 C 833.9375 83.542969 834.769531 85.039062 835.785156 86.5 C 836.804688 87.960938 837.898438 89.316406 839.066406 90.585938 C 840.238281 91.851562 841.398438 93.0625 842.566406 94.226562 C 844.320312 93.257812 846.140625 92.1875 848.035156 91.019531 C 849.929688 89.851562 851.652344 88.539062 853.210938 87.085938 C 854.769531 85.632812 856.050781 84 857.078125 82.203125 C 858.101562 80.402344 858.605469 78.34375 858.605469 76.007812 M 839.210938 108.945312 C 837.171875 110.113281 835.105469 111.371094 833.015625 112.734375 C 830.925781 114.097656 829.050781 115.605469 827.402344 117.253906 C 825.757812 118.902344 824.414062 120.773438 823.394531 122.863281 C 822.378906 124.953125 821.867188 127.304688 821.867188 129.929688 C 821.867188 132.453125 822.398438 134.8125 823.472656 137 C 824.542969 139.1875 825.996094 141.105469 827.847656 142.753906 C 829.695312 144.402344 831.757812 145.691406 834.042969 146.617188 C 836.324219 147.546875 838.730469 148.003906 841.253906 148.003906 C 843.78125 148.003906 846.140625 147.613281 848.328125 146.835938 C 850.515625 146.058594 852.550781 145.066406 854.449219 143.847656 C 856.34375 142.625 858.089844 141.246094 859.691406 139.695312 C 861.292969 138.144531 862.769531 136.542969 864.132812 134.886719 Z M 903.917969 157.625 L 885.117188 157.625 L 872.441406 143.921875 C 868.066406 149.164062 863.429688 153.203125 858.523438 156.019531 C 853.617188 158.835938 847.710938 160.246094 840.8125 160.246094 C 834.984375 160.246094 829.929688 159.390625 825.660156 157.699219 C 821.386719 156.003906 817.859375 153.742188 815.097656 150.917969 C 812.332031 148.09375 810.285156 144.917969 808.976562 141.375 C 807.664062 137.832031 807.003906 134.160156 807.003906 130.371094 C 807.003906 126.773438 807.632812 123.5 808.902344 120.535156 C 810.167969 117.566406 811.859375 114.871094 814.003906 112.445312 C 816.144531 110.015625 818.640625 107.828125 821.507812 105.886719 C 824.378906 103.949219 827.359375 102.246094 830.46875 100.789062 C 827.164062 97.289062 824.324219 93.691406 821.941406 90 C 819.5625 86.304688 818.371094 81.9375 818.371094 76.882812 C 818.371094 72.996094 819.117188 69.546875 820.625 66.539062 C 822.128906 63.527344 824.144531 61 826.667969 58.957031 C 829.195312 56.910156 832.109375 55.359375 835.410156 54.289062 C 838.714844 53.21875 842.222656 52.695312 845.914062 52.695312 C 849.511719 52.695312 852.933594 53.179688 856.191406 54.148438 C 859.453125 55.113281 862.289062 56.582031 864.71875 58.523438 C 867.144531 60.460938 869.0625 62.894531 870.472656 65.808594 C 871.878906 68.726562 872.582031 72.125 872.582031 76.011719 C 872.582031 79.21875 871.953125 82.164062 870.6875 84.832031 C 869.421875 87.496094 867.773438 89.933594 865.738281 92.121094 C 863.699219 94.308594 861.414062 96.246094 858.890625 97.949219 C 856.363281 99.648438 853.789062 101.175781 851.167969 102.539062 L 871.566406 123.816406 L 884.539062 102.683594 L 900.421875 102.683594 L 880.457031 133.578125 Z M 903.917969 157.625 " clip-rule="nonzero"/></clipPath><clipPath id="84674a3db1"><path d="M 0.00390625 0.695312 L 96.921875 0.695312 L 96.921875 108.371094 L 0.00390625 108.371094 Z M 0.00390625 0.695312 " clip-rule="nonzero"/></clipPath><clipPath id="5ff957e8a5"><path d="M 51.597656 24.011719 C 51.597656 20.613281 50.429688 17.914062 48.097656 15.921875 C 45.769531 13.929688 42.757812 12.933594 39.066406 12.933594 C 35.371094 12.933594 32.164062 13.984375 29.445312 16.066406 C 26.726562 18.148438 25.363281 21.144531 25.363281 25.023438 C 25.363281 26.769531 25.679688 28.425781 26.308594 29.984375 C 26.9375 31.542969 27.769531 33.039062 28.785156 34.5 C 29.804688 35.960938 30.898438 37.316406 32.066406 38.585938 C 33.238281 39.851562 34.398438 41.0625 35.566406 42.226562 C 37.320312 41.257812 39.140625 40.1875 41.035156 39.019531 C 42.929688 37.851562 44.652344 36.539062 46.210938 35.085938 C 47.769531 33.632812 49.050781 32 50.078125 30.203125 C 51.101562 28.402344 51.605469 26.34375 51.605469 24.007812 M 32.210938 56.945312 C 30.171875 58.113281 28.105469 59.371094 26.015625 60.734375 C 23.925781 62.097656 22.050781 63.605469 20.402344 65.253906 C 18.757812 66.902344 17.414062 68.773438 16.394531 70.863281 C 15.378906 72.953125 14.867188 75.304688 14.867188 77.929688 C 14.867188 80.453125 15.398438 82.8125 16.472656 85 C 17.542969 87.1875 18.996094 89.105469 20.847656 90.753906 C 22.695312 92.402344 24.757812 93.691406 27.042969 94.617188 C 29.324219 95.546875 31.730469 96.003906 34.253906 96.003906 C 36.78125 96.003906 39.140625 95.613281 41.328125 94.835938 C 43.515625 94.058594 45.550781 93.066406 47.449219 91.847656 C 49.34375 90.625 51.089844 89.246094 52.691406 87.695312 C 54.292969 86.144531 55.769531 84.542969 57.132812 82.886719 Z M 96.917969 105.625 L 78.117188 105.625 L 65.441406 91.921875 C 61.066406 97.164062 56.429688 101.203125 51.523438 104.019531 C 46.617188 106.835938 40.710938 108.246094 33.8125 108.246094 C 27.984375 108.246094 22.929688 107.390625 18.660156 105.699219 C 14.386719 104.003906 10.859375 101.742188 8.097656 98.917969 C 5.332031 96.09375 3.285156 92.917969 1.976562 89.375 C 0.664062 85.832031 0.00390625 82.160156 0.00390625 78.371094 C 0.00390625 74.773438 0.632812 71.5 1.902344 68.535156 C 3.167969 65.566406 4.859375 62.871094 7.003906 60.445312 C 9.144531 58.015625 11.640625 55.828125 14.507812 53.886719 C 17.378906 51.949219 20.359375 50.246094 23.46875 48.789062 C 20.164062 45.289062 17.324219 41.691406 14.941406 38 C 12.5625 34.304688 11.371094 29.9375 11.371094 24.882812 C 11.371094 20.996094 12.117188 17.546875 13.625 14.539062 C 15.128906 11.527344 17.144531 9 19.667969 6.957031 C 22.195312 4.910156 25.109375 3.359375 28.410156 2.289062 C 31.714844 1.21875 35.222656 0.695312 38.914062 0.695312 C 42.511719 0.695312 45.933594 1.179688 49.191406 2.148438 C 52.453125 3.113281 55.289062 4.582031 57.71875 6.523438 C 60.144531 8.460938 62.0625 10.894531 63.472656 13.808594 C 64.878906 16.726562 65.582031 20.125 65.582031 24.011719 C 65.582031 27.21875 64.953125 30.164062 63.6875 32.832031 C 62.421875 35.496094 60.773438 37.933594 58.738281 40.121094 C 56.699219 42.308594 54.414062 44.246094 51.890625 45.949219 C 49.363281 47.648438 46.789062 49.175781 44.167969 50.539062 L 64.566406 71.816406 L 77.539062 50.683594 L 93.421875 50.683594 L 73.457031 81.578125 Z M 96.917969 105.625 " clip-rule="nonzero"/></clipPath><clipPath id="7c965e4692"><rect x="0" width="97" y="0" height="109"/></clipPath><clipPath id="67ca7754c1"><path d="M 924 27.144531 L 993.710938 27.144531 L 993.710938 157.679688 L 924 157.679688 Z M 924 27.144531 " clip-rule="nonzero"/></clipPath><clipPath id="0ce8b12eb4"><path d="M 960.902344 27.625 L 979.554688 27.625 L 957.847656 48.609375 L 945.746094 48.609375 Z M 924.03125 54.445312 L 990.636719 54.445312 L 990.636719 67.5625 L 938.023438 67.5625 L 938.023438 98.308594 L 986.988281 98.308594 L 986.988281 111.425781 L 938.023438 111.425781 L 938.023438 144.503906 L 993.257812 144.503906 L 993.257812 157.621094 L 924.03125 157.621094 Z M 924.03125 54.445312 " clip-rule="nonzero"/></clipPath><clipPath id="d273e8cd4f"><path d="M 0 0.566406 L 69.34375 0.566406 L 69.34375 130.679688 L 0 130.679688 Z M 0 0.566406 " clip-rule="nonzero"/></clipPath><clipPath id="7287b1fd1a"><path d="M 36.902344 0.625 L 55.554688 0.625 L 33.847656 21.609375 L 21.746094 21.609375 Z M 0.03125 27.445312 L 66.636719 27.445312 L 66.636719 40.5625 L 14.023438 40.5625 L 14.023438 71.308594 L 62.988281 71.308594 L 62.988281 84.425781 L 14.023438 84.425781 L 14.023438 117.503906 L 69.257812 117.503906 L 69.257812 130.621094 L 0.03125 130.621094 Z M 0.03125 27.445312 " clip-rule="nonzero"/></clipPath><clipPath id="da78af474d"><rect x="0" width="70" y="0" height="131"/></clipPath><clipPath id="d95f6b7570"><path d="M 998.0625 88.0625 L 1068 88.0625 L 1068 157.679688 L 998.0625 157.679688 Z M 998.0625 88.0625 " clip-rule="nonzero"/></clipPath><clipPath id="c47d9f4004"><path d="M 998.066406 88.546875 L 1013.222656 88.546875 L 1033.910156 141.449219 L 1053.734375 88.546875 L 1067.726562 88.546875 L 1040.625 157.621094 L 1026.1875 157.621094 Z M 998.066406 88.546875 " clip-rule="nonzero"/></clipPath><clipPath id="6df8bd443f"><path d="M 0.0625 0.457031 L 69.894531 0.457031 L 69.894531 69.679688 L 0.0625 69.679688 Z M 0.0625 0.457031 " clip-rule="nonzero"/></clipPath><clipPath id="8166aa0e5c"><path d="M 0.0664062 0.546875 L 15.222656 0.546875 L 35.910156 53.449219 L 55.734375 0.546875 L 69.726562 0.546875 L 42.625 69.621094 L 28.1875 69.621094 Z M 0.0664062 0.546875 " clip-rule="nonzero"/></clipPath><clipPath id="33e17f3b11"><rect x="0" width="70" y="0" height="70"/></clipPath><clipPath id="af735b6da8"><path d="M 1072.03125 86.429688 L 1133.492188 86.429688 L 1133.492188 159.855469 L 1072.03125 159.855469 Z M 1072.03125 86.429688 " clip-rule="nonzero"/></clipPath><clipPath id="f0e8093c75"><path d="M 1113.199219 124.398438 C 1110.089844 124.398438 1106.90625 124.570312 1103.65625 124.90625 C 1100.402344 125.246094 1097.4375 125.90625 1094.761719 126.878906 C 1092.089844 127.851562 1089.902344 129.207031 1088.199219 130.960938 C 1086.5 132.714844 1085.644531 134.945312 1085.644531 137.664062 C 1085.644531 141.652344 1086.980469 144.511719 1089.652344 146.265625 C 1092.328125 148.019531 1095.945312 148.886719 1100.507812 148.886719 C 1104.105469 148.886719 1107.160156 148.28125 1109.691406 147.066406 C 1112.226562 145.855469 1114.253906 144.273438 1115.8125 142.332031 C 1117.371094 140.390625 1118.488281 138.226562 1119.167969 135.84375 C 1119.851562 133.464844 1120.1875 131.109375 1120.1875 128.773438 L 1120.1875 124.398438 Z M 1076.175781 96.996094 C 1079.871094 93.59375 1084.140625 91.046875 1089.003906 89.347656 C 1093.863281 87.648438 1098.71875 86.800781 1103.574219 86.800781 C 1108.621094 86.800781 1112.972656 87.429688 1116.617188 88.695312 C 1120.257812 89.960938 1123.246094 91.660156 1125.574219 93.796875 C 1127.90625 95.933594 1129.628906 98.390625 1130.75 101.152344 C 1131.875 103.917969 1132.429688 106.816406 1132.429688 109.828125 L 1132.429688 145.089844 C 1132.429688 147.515625 1132.472656 149.757812 1132.570312 151.792969 C 1132.667969 153.832031 1132.8125 155.78125 1133.007812 157.621094 L 1121.355469 157.621094 C 1121.066406 154.125 1120.921875 150.625 1120.921875 147.128906 L 1120.628906 147.128906 C 1117.714844 151.597656 1114.261719 154.753906 1110.285156 156.597656 C 1106.308594 158.4375 1101.683594 159.367188 1096.441406 159.367188 C 1093.234375 159.367188 1090.171875 158.933594 1087.257812 158.058594 C 1084.34375 157.179688 1081.796875 155.871094 1079.609375 154.125 C 1077.421875 152.378906 1075.699219 150.214844 1074.433594 147.636719 C 1073.167969 145.058594 1072.535156 142.078125 1072.535156 138.675781 C 1072.535156 134.210938 1073.53125 130.464844 1075.527344 127.453125 C 1077.519531 124.445312 1080.238281 121.992188 1083.683594 120.097656 C 1087.128906 118.203125 1091.167969 116.847656 1095.78125 116.015625 C 1100.398438 115.183594 1105.324219 114.78125 1110.578125 114.78125 L 1120.195312 114.78125 L 1120.195312 111.867188 C 1120.195312 110.121094 1119.851562 108.367188 1119.175781 106.621094 C 1118.503906 104.875 1117.476562 103.296875 1116.113281 101.886719 C 1114.75 100.480469 1113.058594 99.363281 1111.011719 98.53125 C 1108.964844 97.699219 1106.539062 97.296875 1103.722656 97.296875 C 1101.199219 97.296875 1098.988281 97.542969 1097.09375 98.023438 C 1095.199219 98.5 1093.476562 99.117188 1091.917969 99.84375 C 1090.359375 100.570312 1088.949219 101.421875 1087.691406 102.390625 C 1086.433594 103.355469 1085.210938 104.285156 1084.050781 105.160156 Z M 1076.175781 96.996094 " clip-rule="nonzero"/></clipPath><clipPath id="04ba54dc67"><path d="M 0.449219 0.777344 L 61.097656 0.777344 L 61.097656 73.414062 L 0.449219 73.414062 Z M 0.449219 0.777344 " clip-rule="nonzero"/></clipPath><clipPath id="b915863b31"><path d="M 41.199219 38.398438 C 38.089844 38.398438 34.90625 38.570312 31.65625 38.90625 C 28.402344 39.246094 25.4375 39.90625 22.761719 40.878906 C 20.089844 41.851562 17.902344 43.207031 16.199219 44.960938 C 14.5 46.714844 13.644531 48.945312 13.644531 51.664062 C 13.644531 55.652344 14.980469 58.511719 17.652344 60.265625 C 20.328125 62.019531 23.945312 62.886719 28.507812 62.886719 C 32.105469 62.886719 35.160156 62.28125 37.691406 61.066406 C 40.226562 59.855469 42.253906 58.273438 43.8125 56.332031 C 45.371094 54.390625 46.488281 52.226562 47.167969 49.84375 C 47.851562 47.464844 48.1875 45.109375 48.1875 42.773438 L 48.1875 38.398438 Z M 4.175781 10.996094 C 7.871094 7.59375 12.140625 5.046875 17.003906 3.347656 C 21.863281 1.648438 26.71875 0.800781 31.574219 0.800781 C 36.621094 0.800781 40.972656 1.429688 44.617188 2.695312 C 48.257812 3.960938 51.246094 5.660156 53.574219 7.796875 C 55.90625 9.933594 57.628906 12.390625 58.75 15.152344 C 59.875 17.917969 60.429688 20.816406 60.429688 23.828125 L 60.429688 59.089844 C 60.429688 61.515625 60.472656 63.757812 60.570312 65.792969 C 60.667969 67.832031 60.8125 69.78125 61.007812 71.621094 L 49.355469 71.621094 C 49.066406 68.125 48.921875 64.625 48.921875 61.128906 L 48.628906 61.128906 C 45.714844 65.597656 42.261719 68.753906 38.285156 70.597656 C 34.308594 72.4375 29.683594 73.367188 24.441406 73.367188 C 21.234375 73.367188 18.171875 72.933594 15.257812 72.058594 C 12.34375 71.179688 9.796875 69.871094 7.609375 68.125 C 5.421875 66.378906 3.699219 64.214844 2.433594 61.636719 C 1.167969 59.058594 0.535156 56.078125 0.535156 52.675781 C 0.535156 48.210938 1.53125 44.464844 3.527344 41.453125 C 5.519531 38.445312 8.238281 35.992188 11.683594 34.097656 C 15.128906 32.203125 19.167969 30.847656 23.78125 30.015625 C 28.398438 29.183594 33.324219 28.78125 38.578125 28.78125 L 48.195312 28.78125 L 48.195312 25.867188 C 48.195312 24.121094 47.851562 22.367188 47.175781 20.621094 C 46.503906 18.875 45.476562 17.296875 44.113281 15.886719 C 42.75 14.480469 41.058594 13.363281 39.011719 12.53125 C 36.964844 11.699219 34.539062 11.296875 31.722656 11.296875 C 29.199219 11.296875 26.988281 11.542969 25.09375 12.023438 C 23.199219 12.5 21.476562 13.117188 19.917969 13.84375 C 18.359375 14.570312 16.949219 15.421875 15.691406 16.390625 C 14.433594 17.355469 13.210938 18.285156 12.050781 19.160156 Z M 4.175781 10.996094 " clip-rule="nonzero"/></clipPath><clipPath id="6d80dbd23d"><rect x="0" width="62" y="0" height="74"/></clipPath><clipPath id="c73ed2276a"><path d="M 1149.191406 47.445312 L 1162.308594 47.445312 L 1162.308594 157.621094 L 1149.191406 157.621094 Z M 1149.191406 47.445312 " clip-rule="nonzero"/></clipPath><clipPath id="b6393614d8"><path d="M 0.191406 0.445312 L 13.308594 0.445312 L 13.308594 110.621094 L 0.191406 110.621094 Z M 0.191406 0.445312 " clip-rule="nonzero"/></clipPath><clipPath id="a504971d43"><rect x="0" width="14" y="0" height="111"/></clipPath><clipPath id="7189977170"><path d="M 1179.558594 88.546875 L 1241.246094 88.546875 L 1241.246094 159.558594 L 1179.558594 159.558594 Z M 1179.558594 88.546875 " clip-rule="nonzero"/></clipPath><clipPath id="4092dbfb8b"><path d="M 1241.007812 157.621094 L 1227.890625 157.621094 L 1227.890625 146.984375 L 1227.597656 146.984375 C 1225.941406 150.675781 1223.082031 153.667969 1219 155.949219 C 1214.914062 158.234375 1210.203125 159.375 1204.863281 159.375 C 1201.460938 159.375 1198.253906 158.863281 1195.242188 157.847656 C 1192.230469 156.828125 1189.582031 155.246094 1187.304688 153.113281 C 1185.027344 150.976562 1183.199219 148.226562 1181.835938 144.878906 C 1180.472656 141.53125 1179.796875 137.558594 1179.796875 132.996094 L 1179.796875 88.546875 L 1192.914062 88.546875 L 1192.914062 129.351562 C 1192.914062 132.554688 1193.347656 135.304688 1194.226562 137.582031 C 1195.101562 139.859375 1196.261719 141.710938 1197.722656 143.117188 C 1199.183594 144.527344 1200.855469 145.546875 1202.75 146.183594 C 1204.644531 146.820312 1206.617188 147.125 1208.652344 147.125 C 1211.371094 147.125 1213.898438 146.691406 1216.234375 145.816406 C 1218.570312 144.9375 1220.609375 143.5625 1222.355469 141.664062 C 1224.101562 139.769531 1225.464844 137.367188 1226.4375 134.453125 C 1227.410156 131.539062 1227.890625 128.089844 1227.890625 124.105469 L 1227.890625 88.546875 L 1241.007812 88.546875 Z M 1241.007812 157.621094 " clip-rule="nonzero"/></clipPath><clipPath id="39d86f3171"><path d="M 0.605469 0.546875 L 62.214844 0.546875 L 62.214844 71.414062 L 0.605469 71.414062 Z M 0.605469 0.546875 " clip-rule="nonzero"/></clipPath><clipPath id="9c688685e9"><path d="M 62.007812 69.621094 L 48.890625 69.621094 L 48.890625 58.984375 L 48.597656 58.984375 C 46.941406 62.675781 44.082031 65.667969 40 67.949219 C 35.914062 70.234375 31.203125 71.375 25.863281 71.375 C 22.460938 71.375 19.253906 70.863281 16.242188 69.847656 C 13.230469 68.828125 10.582031 67.246094 8.304688 65.113281 C 6.027344 62.976562 4.199219 60.226562 2.835938 56.878906 C 1.472656 53.53125 0.796875 49.558594 0.796875 44.996094 L 0.796875 0.546875 L 13.914062 0.546875 L 13.914062 41.351562 C 13.914062 44.554688 14.347656 47.304688 15.226562 49.582031 C 16.101562 51.859375 17.261719 53.710938 18.722656 55.117188 C 20.183594 56.527344 21.855469 57.546875 23.75 58.183594 C 25.644531 58.820312 27.617188 59.125 29.652344 59.125 C 32.371094 59.125 34.898438 58.691406 37.234375 57.816406 C 39.570312 56.9375 41.609375 55.5625 43.355469 53.664062 C 45.101562 51.769531 46.464844 49.367188 47.4375 46.453125 C 48.410156 43.539062 48.890625 40.089844 48.890625 36.105469 L 48.890625 0.546875 L 62.007812 0.546875 Z M 62.007812 69.621094 " clip-rule="nonzero"/></clipPath><clipPath id="f5736a71d8"><rect x="0" width="63" y="0" height="72"/></clipPath><clipPath id="60fb739592"><path d="M 1254 86.789062 L 1314.878906 86.789062 L 1314.878906 159.683594 L 1254 159.683594 Z M 1254 86.789062 " clip-rule="nonzero"/></clipPath><clipPath id="99e80ce61f"><path d="M 1294.785156 124.394531 C 1291.675781 124.394531 1288.492188 124.566406 1285.242188 124.902344 C 1281.992188 125.242188 1279.023438 125.898438 1276.351562 126.875 C 1273.675781 127.847656 1271.488281 129.203125 1269.789062 130.957031 C 1268.085938 132.710938 1267.234375 134.941406 1267.234375 137.660156 C 1267.234375 141.648438 1268.566406 144.507812 1271.242188 146.261719 C 1273.914062 148.015625 1277.535156 148.882812 1282.097656 148.882812 C 1285.691406 148.882812 1288.746094 148.277344 1291.28125 147.0625 C 1293.8125 145.847656 1295.84375 144.269531 1297.398438 142.328125 C 1298.957031 140.386719 1300.074219 138.222656 1300.757812 135.839844 C 1301.4375 133.457031 1301.773438 131.105469 1301.773438 128.769531 L 1301.773438 124.394531 Z M 1257.765625 97 C 1261.457031 93.597656 1265.726562 91.050781 1270.589844 89.351562 C 1275.449219 87.648438 1280.304688 86.804688 1285.160156 86.804688 C 1290.207031 86.804688 1294.5625 87.433594 1298.203125 88.699219 C 1301.84375 89.964844 1304.832031 91.664062 1307.160156 93.800781 C 1309.492188 95.933594 1311.214844 98.390625 1312.335938 101.15625 C 1313.460938 103.921875 1314.015625 106.820312 1314.015625 109.832031 L 1314.015625 145.101562 C 1314.015625 147.527344 1314.0625 149.765625 1314.15625 151.804688 C 1314.253906 153.84375 1314.398438 155.789062 1314.59375 157.632812 L 1302.945312 157.632812 C 1302.652344 154.132812 1302.507812 150.636719 1302.507812 147.136719 L 1302.21875 147.136719 C 1299.304688 151.609375 1295.851562 154.765625 1291.871094 156.605469 C 1287.894531 158.449219 1283.273438 159.378906 1278.027344 159.378906 C 1274.820312 159.378906 1271.757812 158.945312 1268.84375 158.066406 C 1265.929688 157.191406 1263.382812 155.878906 1261.195312 154.132812 C 1259.007812 152.390625 1257.285156 150.222656 1256.019531 147.648438 C 1254.753906 145.070312 1254.125 142.082031 1254.125 138.679688 C 1254.125 134.214844 1255.121094 130.46875 1257.113281 127.457031 C 1259.105469 124.445312 1261.824219 121.996094 1265.269531 120.101562 C 1268.714844 118.207031 1272.753906 116.851562 1277.367188 116.019531 C 1281.984375 115.1875 1286.914062 114.78125 1292.164062 114.78125 L 1301.773438 114.78125 L 1301.773438 111.863281 C 1301.773438 110.117188 1301.429688 108.363281 1300.757812 106.617188 C 1300.082031 104.871094 1299.054688 103.292969 1297.691406 101.882812 C 1296.328125 100.476562 1294.636719 99.359375 1292.589844 98.527344 C 1290.546875 97.695312 1288.117188 97.289062 1285.300781 97.289062 C 1282.777344 97.289062 1280.566406 97.539062 1278.671875 98.019531 C 1276.777344 98.496094 1275.054688 99.113281 1273.496094 99.839844 C 1271.9375 100.566406 1270.53125 101.417969 1269.269531 102.386719 C 1268.011719 103.351562 1266.792969 104.28125 1265.628906 105.15625 Z M 1257.765625 97 " clip-rule="nonzero"/></clipPath><clipPath id="2aa9601313"><path d="M 0 0.789062 L 60.808594 0.789062 L 60.808594 73.414062 L 0 73.414062 Z M 0 0.789062 " clip-rule="nonzero"/></clipPath><clipPath id="a2ad4096e9"><path d="M 40.785156 38.394531 C 37.675781 38.394531 34.492188 38.566406 31.242188 38.902344 C 27.992188 39.242188 25.023438 39.898438 22.351562 40.875 C 19.675781 41.847656 17.488281 43.203125 15.789062 44.957031 C 14.085938 46.710938 13.234375 48.941406 13.234375 51.660156 C 13.234375 55.648438 14.566406 58.507812 17.242188 60.261719 C 19.914062 62.015625 23.535156 62.882812 28.097656 62.882812 C 31.691406 62.882812 34.746094 62.277344 37.28125 61.0625 C 39.8125 59.847656 41.84375 58.269531 43.398438 56.328125 C 44.957031 54.386719 46.074219 52.222656 46.757812 49.839844 C 47.4375 47.457031 47.773438 45.105469 47.773438 42.769531 L 47.773438 38.394531 Z M 3.765625 11 C 7.457031 7.597656 11.726562 5.050781 16.589844 3.351562 C 21.449219 1.648438 26.304688 0.804688 31.160156 0.804688 C 36.207031 0.804688 40.5625 1.433594 44.203125 2.699219 C 47.84375 3.964844 50.832031 5.664062 53.160156 7.800781 C 55.492188 9.933594 57.214844 12.390625 58.335938 15.15625 C 59.460938 17.921875 60.015625 20.820312 60.015625 23.832031 L 60.015625 59.101562 C 60.015625 61.527344 60.0625 63.765625 60.15625 65.804688 C 60.253906 67.84375 60.398438 69.789062 60.59375 71.632812 L 48.945312 71.632812 C 48.652344 68.132812 48.507812 64.636719 48.507812 61.136719 L 48.21875 61.136719 C 45.304688 65.609375 41.851562 68.765625 37.871094 70.605469 C 33.894531 72.449219 29.273438 73.378906 24.027344 73.378906 C 20.820312 73.378906 17.757812 72.945312 14.84375 72.066406 C 11.929688 71.191406 9.382812 69.878906 7.195312 68.132812 C 5.007812 66.390625 3.285156 64.222656 2.019531 61.648438 C 0.753906 59.070312 0.125 56.082031 0.125 52.679688 C 0.125 48.214844 1.121094 44.46875 3.113281 41.457031 C 5.105469 38.445312 7.824219 35.996094 11.269531 34.101562 C 14.714844 32.207031 18.753906 30.851562 23.367188 30.019531 C 27.984375 29.1875 32.914062 28.78125 38.164062 28.78125 L 47.773438 28.78125 L 47.773438 25.863281 C 47.773438 24.117188 47.429688 22.363281 46.757812 20.617188 C 46.082031 18.871094 45.054688 17.292969 43.691406 15.882812 C 42.328125 14.476562 40.636719 13.359375 38.589844 12.527344 C 36.546875 11.695312 34.117188 11.289062 31.300781 11.289062 C 28.777344 11.289062 26.566406 11.539062 24.671875 12.019531 C 22.777344 12.496094 21.054688 13.113281 19.496094 13.839844 C 17.9375 14.566406 16.53125 15.417969 15.269531 16.386719 C 14.011719 17.351562 12.792969 18.28125 11.628906 19.15625 Z M 3.765625 11 " clip-rule="nonzero"/></clipPath><clipPath id="7c1c6d087c"><rect x="0" width="61" y="0" height="74"/></clipPath><clipPath id="3f3539f323"><path d="M 1319.457031 69 L 1367.546875 69 L 1367.546875 159.683594 L 1319.457031 159.683594 Z M 1319.457031 69 " clip-rule="nonzero"/></clipPath><clipPath id="c3ab37e5c4"><path d="M 1366.777344 99.914062 L 1347.972656 99.914062 L 1347.972656 131.25 C 1347.972656 133.195312 1348.027344 135.105469 1348.125 137.007812 C 1348.222656 138.914062 1348.582031 140.605469 1349.21875 142.109375 C 1349.855469 143.617188 1350.820312 144.832031 1352.132812 145.75 C 1353.441406 146.671875 1355.359375 147.136719 1357.890625 147.136719 C 1359.441406 147.136719 1361.046875 146.996094 1362.703125 146.703125 C 1364.355469 146.410156 1365.855469 145.878906 1367.21875 145.101562 L 1367.21875 157.046875 C 1365.660156 157.925781 1363.644531 158.53125 1361.171875 158.867188 C 1358.699219 159.207031 1356.777344 159.378906 1355.414062 159.378906 C 1350.363281 159.378906 1346.453125 158.675781 1343.679688 157.265625 C 1340.910156 155.859375 1338.871094 154.035156 1337.5625 151.804688 C 1336.25 149.574219 1335.472656 147.070312 1335.230469 144.296875 C 1334.992188 141.527344 1334.863281 138.738281 1334.863281 135.914062 L 1334.863281 99.914062 L 1319.703125 99.914062 L 1319.703125 88.546875 L 1334.855469 88.546875 L 1334.855469 69.160156 L 1347.972656 69.160156 L 1347.972656 88.546875 L 1366.777344 88.546875 Z M 1366.777344 99.914062 " clip-rule="nonzero"/></clipPath><clipPath id="7204d154be"><path d="M 0.601562 0.0390625 L 48.304688 0.0390625 L 48.304688 90.414062 L 0.601562 90.414062 Z M 0.601562 0.0390625 " clip-rule="nonzero"/></clipPath><clipPath id="cb769d2f42"><path d="M 47.777344 30.914062 L 28.972656 30.914062 L 28.972656 62.25 C 28.972656 64.195312 29.027344 66.105469 29.125 68.007812 C 29.222656 69.914062 29.582031 71.605469 30.21875 73.109375 C 30.855469 74.617188 31.820312 75.832031 33.132812 76.75 C 34.441406 77.671875 36.359375 78.136719 38.890625 78.136719 C 40.441406 78.136719 42.046875 77.996094 43.703125 77.703125 C 45.355469 77.410156 46.855469 76.878906 48.21875 76.101562 L 48.21875 88.046875 C 46.660156 88.925781 44.644531 89.53125 42.171875 89.867188 C 39.699219 90.207031 37.777344 90.378906 36.414062 90.378906 C 31.363281 90.378906 27.453125 89.675781 24.679688 88.265625 C 21.910156 86.859375 19.871094 85.035156 18.5625 82.804688 C 17.25 80.574219 16.472656 78.070312 16.230469 75.296875 C 15.992188 72.527344 15.863281 69.738281 15.863281 66.914062 L 15.863281 30.914062 L 0.703125 30.914062 L 0.703125 19.546875 L 15.855469 19.546875 L 15.855469 0.160156 L 28.972656 0.160156 L 28.972656 19.546875 L 47.777344 19.546875 Z M 47.777344 30.914062 " clip-rule="nonzero"/></clipPath><clipPath id="6be5b8533b"><rect x="0" width="49" y="0" height="91"/></clipPath><clipPath id="c7d32cec30"><path d="M 1378.289062 54.152344 L 1397.601562 54.152344 L 1397.601562 157.625 L 1378.289062 157.625 Z M 1378.289062 54.152344 " clip-rule="nonzero"/></clipPath><clipPath id="d3c8e9abed"><path d="M 1381.347656 88.542969 L 1394.464844 88.542969 L 1394.464844 157.621094 L 1381.347656 157.621094 Z M 1378.289062 63.769531 C 1378.289062 61.148438 1379.234375 58.886719 1381.128906 56.988281 C 1383.023438 55.09375 1385.289062 54.152344 1387.910156 54.152344 C 1390.53125 54.152344 1392.792969 55.09375 1394.6875 56.988281 C 1396.585938 58.886719 1397.527344 61.140625 1397.527344 63.769531 C 1397.527344 66.398438 1396.585938 68.652344 1394.6875 70.546875 C 1392.792969 72.445312 1390.53125 73.386719 1387.910156 73.386719 C 1385.289062 73.386719 1383.023438 72.445312 1381.128906 70.546875 C 1379.234375 68.652344 1378.289062 66.390625 1378.289062 63.769531 " clip-rule="nonzero"/></clipPath><clipPath id="f185ff6d74"><path d="M 0.289062 0.152344 L 19.601562 0.152344 L 19.601562 103.625 L 0.289062 103.625 Z M 0.289062 0.152344 " clip-rule="nonzero"/></clipPath><clipPath id="161eb88782"><path d="M 3.347656 34.542969 L 16.464844 34.542969 L 16.464844 103.621094 L 3.347656 103.621094 Z M 0.289062 9.769531 C 0.289062 7.148438 1.234375 4.886719 3.128906 2.988281 C 5.023438 1.09375 7.289062 0.152344 9.910156 0.152344 C 12.53125 0.152344 14.792969 1.09375 16.6875 2.988281 C 18.585938 4.886719 19.527344 7.140625 19.527344 9.769531 C 19.527344 12.398438 18.585938 14.652344 16.6875 16.546875 C 14.792969 18.445312 12.53125 19.386719 9.910156 19.386719 C 7.289062 19.386719 5.023438 18.445312 3.128906 16.546875 C 1.234375 14.652344 0.289062 12.390625 0.289062 9.769531 " clip-rule="nonzero"/></clipPath><clipPath id="965bdd6db5"><rect x="0" width="20" y="0" height="104"/></clipPath><clipPath id="ec2a1dffd7"><path d="M 1408.601562 86.796875 L 1482.3125 86.796875 L 1482.3125 159.375 L 1408.601562 159.375 Z M 1408.601562 86.796875 " clip-rule="nonzero"/></clipPath><clipPath id="80e7e1d8e3"><path d="M 1422.597656 123.085938 C 1422.597656 126.582031 1423.128906 129.8125 1424.199219 132.777344 C 1425.269531 135.746094 1426.769531 138.269531 1428.714844 140.359375 C 1430.664062 142.449219 1433.039062 144.105469 1435.855469 145.3125 C 1438.671875 146.515625 1441.832031 147.132812 1445.332031 147.132812 C 1448.832031 147.132812 1451.984375 146.523438 1454.808594 145.3125 C 1457.632812 144.097656 1460.007812 142.449219 1461.949219 140.359375 C 1463.886719 138.269531 1465.394531 135.746094 1466.464844 132.777344 C 1467.535156 129.8125 1468.066406 126.582031 1468.066406 123.085938 C 1468.066406 119.585938 1467.535156 116.355469 1466.464844 113.390625 C 1465.394531 110.425781 1463.886719 107.898438 1461.949219 105.808594 C 1460.007812 103.71875 1457.625 102.070312 1454.808594 100.859375 C 1451.992188 99.644531 1448.832031 99.039062 1445.332031 99.039062 C 1441.832031 99.039062 1438.671875 99.644531 1435.855469 100.859375 C 1433.039062 102.070312 1430.65625 103.726562 1428.714844 105.808594 C 1426.777344 107.890625 1425.261719 110.425781 1424.199219 113.390625 C 1423.136719 116.355469 1422.597656 119.585938 1422.597656 123.085938 M 1408.601562 123.085938 C 1408.601562 118.035156 1409.546875 113.324219 1411.441406 108.949219 C 1413.335938 104.574219 1415.9375 100.738281 1419.238281 97.433594 C 1422.542969 94.128906 1426.433594 91.53125 1430.902344 89.636719 C 1435.375 87.742188 1440.179688 86.796875 1445.332031 86.796875 C 1450.484375 86.796875 1455.289062 87.742188 1459.753906 89.636719 C 1464.21875 91.53125 1468.105469 94.128906 1471.410156 97.433594 C 1474.710938 100.738281 1477.3125 104.574219 1479.207031 108.949219 C 1481.101562 113.324219 1482.046875 118.035156 1482.046875 123.085938 C 1482.046875 128.132812 1481.09375 132.875 1479.207031 137.296875 C 1477.320312 141.714844 1474.710938 145.550781 1471.410156 148.808594 C 1468.105469 152.066406 1464.21875 154.636719 1459.753906 156.53125 C 1455.289062 158.425781 1450.472656 159.371094 1445.324219 159.371094 C 1440.179688 159.371094 1435.363281 158.425781 1430.898438 156.53125 C 1426.433594 154.636719 1422.542969 152.058594 1419.238281 148.808594 C 1415.9375 145.558594 1413.335938 141.714844 1411.441406 137.296875 C 1409.546875 132.875 1408.601562 128.140625 1408.601562 123.085938 " clip-rule="nonzero"/></clipPath><clipPath id="115b67cede"><path d="M 0.601562 0.796875 L 74.132812 0.796875 L 74.132812 73.375 L 0.601562 73.375 Z M 0.601562 0.796875 " clip-rule="nonzero"/></clipPath><clipPath id="020bb29395"><path d="M 14.597656 37.085938 C 14.597656 40.582031 15.128906 43.8125 16.199219 46.777344 C 17.269531 49.746094 18.769531 52.269531 20.714844 54.359375 C 22.664062 56.449219 25.039062 58.105469 27.855469 59.3125 C 30.671875 60.515625 33.832031 61.132812 37.332031 61.132812 C 40.832031 61.132812 43.984375 60.523438 46.808594 59.3125 C 49.632812 58.097656 52.007812 56.449219 53.949219 54.359375 C 55.886719 52.269531 57.394531 49.746094 58.464844 46.777344 C 59.535156 43.8125 60.066406 40.582031 60.066406 37.085938 C 60.066406 33.585938 59.535156 30.355469 58.464844 27.390625 C 57.394531 24.425781 55.886719 21.898438 53.949219 19.808594 C 52.007812 17.71875 49.625 16.070312 46.808594 14.859375 C 43.992188 13.644531 40.832031 13.039062 37.332031 13.039062 C 33.832031 13.039062 30.671875 13.644531 27.855469 14.859375 C 25.039062 16.070312 22.65625 17.726562 20.714844 19.808594 C 18.777344 21.890625 17.261719 24.425781 16.199219 27.390625 C 15.136719 30.355469 14.597656 33.585938 14.597656 37.085938 M 0.601562 37.085938 C 0.601562 32.035156 1.546875 27.324219 3.441406 22.949219 C 5.335938 18.574219 7.9375 14.738281 11.238281 11.433594 C 14.542969 8.128906 18.433594 5.53125 22.902344 3.636719 C 27.375 1.742188 32.179688 0.796875 37.332031 0.796875 C 42.484375 0.796875 47.289062 1.742188 51.753906 3.636719 C 56.21875 5.53125 60.105469 8.128906 63.410156 11.433594 C 66.710938 14.738281 69.3125 18.574219 71.207031 22.949219 C 73.101562 27.324219 74.046875 32.035156 74.046875 37.085938 C 74.046875 42.132812 73.09375 46.875 71.207031 51.296875 C 69.320312 55.714844 66.710938 59.550781 63.410156 62.808594 C 60.105469 66.066406 56.21875 68.636719 51.753906 70.53125 C 47.289062 72.425781 42.472656 73.371094 37.324219 73.371094 C 32.179688 73.371094 27.363281 72.425781 22.898438 70.53125 C 18.433594 68.636719 14.542969 66.058594 11.238281 62.808594 C 7.9375 59.558594 5.335938 55.714844 3.441406 51.296875 C 1.546875 46.875 0.601562 42.140625 0.601562 37.085938 " clip-rule="nonzero"/></clipPath><clipPath id="5617d1aaa3"><rect x="0" width="75" y="0" height="74"/></clipPath><clipPath id="be09ead744"><path d="M 1495.167969 86.796875 L 1556.617188 86.796875 L 1556.617188 157.808594 L 1495.167969 157.808594 Z M 1495.167969 86.796875 " clip-rule="nonzero"/></clipPath><clipPath id="fab68265e9"><path d="M 1495.167969 88.542969 L 1508.285156 88.542969 L 1508.285156 99.179688 L 1508.578125 99.179688 C 1510.234375 95.484375 1513.09375 92.496094 1517.179688 90.21875 C 1521.261719 87.941406 1525.964844 86.796875 1531.3125 86.796875 C 1534.617188 86.796875 1537.800781 87.304688 1540.859375 88.324219 C 1543.914062 89.34375 1546.589844 90.925781 1548.875 93.058594 C 1551.160156 95.195312 1552.980469 97.945312 1554.34375 101.292969 C 1555.707031 104.640625 1556.378906 108.601562 1556.378906 113.171875 L 1556.378906 157.625 L 1543.261719 157.625 L 1543.261719 116.820312 C 1543.261719 113.613281 1542.828125 110.875 1541.953125 108.589844 C 1541.074219 106.304688 1539.914062 104.460938 1538.453125 103.050781 C 1536.992188 101.644531 1535.320312 100.625 1533.425781 99.988281 C 1531.53125 99.351562 1529.5625 99.042969 1527.523438 99.042969 C 1524.804688 99.042969 1522.28125 99.480469 1519.941406 100.355469 C 1517.605469 101.230469 1515.566406 102.609375 1513.824219 104.503906 C 1512.078125 106.402344 1510.714844 108.804688 1509.738281 111.71875 C 1508.765625 114.632812 1508.285156 118.085938 1508.285156 122.066406 L 1508.285156 157.625 L 1495.167969 157.625 Z M 1495.167969 88.542969 " clip-rule="nonzero"/></clipPath><clipPath id="56bc13e8c3"><path d="M 0.167969 0.796875 L 61.445312 0.796875 L 61.445312 71.734375 L 0.167969 71.734375 Z M 0.167969 0.796875 " clip-rule="nonzero"/></clipPath><clipPath id="61b60e3613"><path d="M 0.167969 2.542969 L 13.285156 2.542969 L 13.285156 13.179688 L 13.578125 13.179688 C 15.234375 9.484375 18.09375 6.496094 22.179688 4.21875 C 26.261719 1.941406 30.964844 0.796875 36.3125 0.796875 C 39.617188 0.796875 42.800781 1.304688 45.859375 2.324219 C 48.914062 3.34375 51.589844 4.925781 53.875 7.058594 C 56.160156 9.195312 57.980469 11.945312 59.34375 15.292969 C 60.707031 18.640625 61.378906 22.601562 61.378906 27.171875 L 61.378906 71.625 L 48.261719 71.625 L 48.261719 30.820312 C 48.261719 27.613281 47.828125 24.875 46.953125 22.589844 C 46.074219 20.304688 44.914062 18.460938 43.453125 17.050781 C 41.992188 15.644531 40.320312 14.625 38.425781 13.988281 C 36.53125 13.351562 34.5625 13.042969 32.523438 13.042969 C 29.804688 13.042969 27.28125 13.480469 24.941406 14.355469 C 22.605469 15.230469 20.566406 16.609375 18.824219 18.503906 C 17.078125 20.402344 15.714844 22.804688 14.738281 25.71875 C 13.765625 28.632812 13.285156 32.085938 13.285156 36.066406 L 13.285156 71.625 L 0.167969 71.625 Z M 0.167969 2.542969 " clip-rule="nonzero"/></clipPath><clipPath id="9d9085cbc8"><rect x="0" width="62" y="0" height="72"/></clipPath></defs><g clip-path="url(#904de8033a)"><g clip-path="url(#4aeb10377b)"><g transform="matrix(1, 0, 0, 1, 28, 0.00000000000000392)"><g clip-path="url(#b9950a3a0c)"><g clip-path="url(#31552f3aa9)"><g clip-path="url(#15b23c1525)"><rect x="-372.19" width="2252.88" fill="#fff1e4" height="307.800001" y="-47.025" fill-opacity="1"/></g></g></g></g></g></g><g clip-path="url(#3cf694f4ac)"><g clip-path="url(#47dbe318b2)"><g transform="matrix(1, 0, 0, 1, -0.000000000000000111, 44)"><g clip-path="url(#99032c5189)"><g clip-path="url(#5914ed4ce2)"><g clip-path="url(#6ec4653d59)"><rect x="-344.19" width="2252.88" fill="#b1b4b6" height="307.800001" y="-91.025" fill-opacity="1"/></g></g></g></g></g></g><g clip-path="url(#1ec2b0d5b5)"><g clip-path="url(#8bfa1725d9)"><g transform="matrix(1, 0, 0, 1, 80, 73)"><g clip-path="url(#9be8d74b13)"><g clip-path="url(#ce6944c7d7)"><g clip-path="url(#a41d5f5759)"><rect x="-424.19" width="2252.88" fill="#2a6c87" height="307.800001" y="-120.025" fill-opacity="1"/></g></g></g></g></g></g><g clip-path="url(#9e01208938)"><g clip-path="url(#d12fdbad88)"><g transform="matrix(1, 0, 0, 1, 159, 26)"><g clip-path="url(#3d12ba7153)"><g clip-path="url(#01c87ab1de)"><g clip-path="url(#4573073686)"><rect x="-503.19" width="2252.88" fill="#ffffff" height="307.800001" y="-73.025" fill-opacity="1"/></g></g></g></g></g></g><g clip-path="url(#271e660323)"><g clip-path="url(#e19120306d)"><g transform="matrix(1, 0, 0, 1, 157, 24)"><g clip-path="url(#751790c00e)"><g clip-path="url(#d466ce21c6)"><g clip-path="url(#a370f3636c)"><rect x="-501.19" width="2252.88" fill="#ed1631" height="307.800001" y="-71.025" fill-opacity="1"/></g></g></g></g></g></g><g clip-path="url(#7de175e142)"><g clip-path="url(#d2b7d0eb2d)"><g transform="matrix(1, 0, 0, 1, 167, 34)"><g clip-path="url(#31952ed622)"><g clip-path="url(#fb4c30ff28)"><g clip-path="url(#3fd0e0994e)"><rect x="-511.19" width="2252.88" fill="#ed1631" height="307.800001" y="-81.025" fill-opacity="1"/></g></g></g></g></g></g><g clip-path="url(#8fa8086762)"><g clip-path="url(#223376bcbc)"><g transform="matrix(1, 0, 0, 1, 208, 61)"><g clip-path="url(#5798d98c12)"><g clip-path="url(#cb84b73509)"><g clip-path="url(#28962949ee)"><rect x="-552.19" width="2252.88" fill="#ffffff" height="307.800001" y="-108.025" fill-opacity="1"/></g></g></g></g></g></g><g clip-path="url(#771518f790)"><g clip-path="url(#ccafe59ef2)"><g transform="matrix(1, 0, 0, 1, 302, 54)"><g clip-path="url(#679f2c90e2)"><g clip-path="url(#48f8c0cc1d)"><g clip-path="url(#cd86ca693a)"><rect x="-646.19" width="2252.88" fill="#eb2027" height="307.800001" y="-101.025" fill-opacity="1"/></g></g></g></g></g></g><g clip-path="url(#365b09fca6)"><g clip-path="url(#7d7a17c6c8)"><g transform="matrix(1, 0, 0, 1, 411, 86)"><g clip-path="url(#15b57b4ea6)"><g clip-path="url(#e0f10a8bb9)"><g clip-path="url(#6ff0787c49)"><rect x="-755.19" width="2252.88" fill="#eb2027" height="307.800001" y="-133.025" fill-opacity="1"/></g></g></g></g></g></g><g clip-path="url(#6b52798352)"><g clip-path="url(#16d2aac531)"><g transform="matrix(1, 0, 0, 1, 485, 86)"><g clip-path="url(#61d0d4e181)"><g clip-path="url(#01379c7127)"><g clip-path="url(#8f1f72ea9c)"><path fill="#eb2027" d="M 0.511719 0.796875 L 60.992188 0.796875 L 60.992188 73.324219 L 0.511719 73.324219 Z M 0.511719 0.796875 " fill-opacity="1" fill-rule="nonzero"/></g></g></g></g></g></g><g clip-path="url(#5feee760f8)"><g transform="matrix(1, 0, 0, 1, 562, 47)"><g clip-path="url(#620f76e93b)"><g clip-path="url(#b8f036f9d2)"><path fill="#eb2027" d="M 0.167969 0.449219 L 13.285156 0.449219 L 13.285156 110.605469 L 0.167969 110.605469 Z M 0.167969 0.449219 " fill-opacity="1" fill-rule="nonzero"/></g></g></g></g><g clip-path="url(#74525836af)"><g clip-path="url(#d1f7c34c12)"><g transform="matrix(1, 0, 0, 1, 584, 88)"><g clip-path="url(#55bf4fd3ca)"><g clip-path="url(#cb3d8cb4e2)"><g clip-path="url(#08f908ed78)"><rect x="-928.19" width="2252.88" fill="#eb2027" height="307.800001" y="-135.025" fill-opacity="1"/></g></g></g></g></g></g><g clip-path="url(#ce324720e3)"><g clip-path="url(#0e7e84e3e8)"><g transform="matrix(1, 0, 0, 1, 656, 86)"><g clip-path="url(#3bc48b1b5a)"><g clip-path="url(#1b196e285d)"><g clip-path="url(#9a0c517a8f)"><rect x="-1000.19" width="2252.88" fill="#eb2027" height="307.800001" y="-133.025" fill-opacity="1"/></g></g></g></g></g></g><g clip-path="url(#a225384942)"><g clip-path="url(#4c29c23070)"><g transform="matrix(1, 0, 0, 1, 719, 86)"><g clip-path="url(#90ae02cd3a)"><g clip-path="url(#8a78c4611b)"><g clip-path="url(#d2db07cb1e)"><path fill="#eb2027" d="M 0.5625 0.796875 L 69.933594 0.796875 L 69.933594 73.417969 L 0.5625 73.417969 Z M 0.5625 0.796875 " fill-opacity="1" fill-rule="nonzero"/></g></g></g></g></g></g><g clip-path="url(#4de6f6a7b6)"><g clip-path="url(#2f6550af7d)"><g transform="matrix(1, 0, 0, 1, 807, 52)"><g clip-path="url(#7c965e4692)"><g clip-path="url(#84674a3db1)"><g clip-path="url(#5ff957e8a5)"><path fill="#59595c" d="M 0.00390625 0.695312 L 96.921875 0.695312 L 96.921875 108.210938 L 0.00390625 108.210938 Z M 0.00390625 0.695312 " fill-opacity="1" fill-rule="nonzero"/></g></g></g></g></g></g><g clip-path="url(#67ca7754c1)"><g clip-path="url(#0ce8b12eb4)"><g transform="matrix(1, 0, 0, 1, 924, 27)"><g clip-path="url(#da78af474d)"><g clip-path="url(#d273e8cd4f)"><g clip-path="url(#7287b1fd1a)"><rect x="-1268.19" width="2252.88" fill="#eb2027" height="307.800001" y="-74.025" fill-opacity="1"/></g></g></g></g></g></g><g clip-path="url(#d95f6b7570)"><g clip-path="url(#c47d9f4004)"><g transform="matrix(1, 0, 0, 1, 998, 88)"><g clip-path="url(#33e17f3b11)"><g clip-path="url(#6df8bd443f)"><g clip-path="url(#8166aa0e5c)"><rect x="-1342.19" width="2252.88" fill="#eb2027" height="307.800001" y="-135.025" fill-opacity="1"/></g></g></g></g></g></g><g clip-path="url(#af735b6da8)"><g clip-path="url(#f0e8093c75)"><g transform="matrix(1, 0, 0, 1, 1072, 86)"><g clip-path="url(#6d80dbd23d)"><g clip-path="url(#04ba54dc67)"><g clip-path="url(#b915863b31)"><rect x="-1416.19" width="2252.88" fill="#eb2027" height="307.800001" y="-133.025" fill-opacity="1"/></g></g></g></g></g></g><g clip-path="url(#c73ed2276a)"><g transform="matrix(1, 0, 0, 1, 1149, 47)"><g clip-path="url(#a504971d43)"><g clip-path="url(#b6393614d8)"><path fill="#eb2027" d="M 0.191406 0.449219 L 13.308594 0.449219 L 13.308594 110.605469 L 0.191406 110.605469 Z M 0.191406 0.449219 " fill-opacity="1" fill-rule="nonzero"/></g></g></g></g><g clip-path="url(#7189977170)"><g clip-path="url(#4092dbfb8b)"><g transform="matrix(1, 0, 0, 1, 1179, 88)"><g clip-path="url(#f5736a71d8)"><g clip-path="url(#39d86f3171)"><g clip-path="url(#9c688685e9)"><path fill="#eb2027" d="M 0.796875 0.546875 L 62.007812 0.546875 L 62.007812 71.320312 L 0.796875 71.320312 Z M 0.796875 0.546875 " fill-opacity="1" fill-rule="nonzero"/></g></g></g></g></g></g><g clip-path="url(#60fb739592)"><g clip-path="url(#99e80ce61f)"><g transform="matrix(1, 0, 0, 1, 1254, 86)"><g clip-path="url(#7c1c6d087c)"><g clip-path="url(#2aa9601313)"><g clip-path="url(#a2ad4096e9)"><rect x="-1598.19" width="2252.88" fill="#eb2027" height="307.800001" y="-133.025" fill-opacity="1"/></g></g></g></g></g></g><g clip-path="url(#3f3539f323)"><g clip-path="url(#c3ab37e5c4)"><g transform="matrix(1, 0, 0, 1, 1319, 69)"><g clip-path="url(#6be5b8533b)"><g clip-path="url(#7204d154be)"><g clip-path="url(#cb769d2f42)"><rect x="-1663.19" width="2252.88" fill="#eb2027" height="307.800001" y="-116.025" fill-opacity="1"/></g></g></g></g></g></g><g clip-path="url(#c7d32cec30)"><g clip-path="url(#d3c8e9abed)"><g transform="matrix(1, 0, 0, 1, 1378, 54)"><g clip-path="url(#965bdd6db5)"><g clip-path="url(#f185ff6d74)"><g clip-path="url(#161eb88782)"><path fill="#eb2027" d="M 0.289062 0.152344 L 19.527344 0.152344 L 19.527344 103.625 L 0.289062 103.625 Z M 0.289062 0.152344 " fill-opacity="1" fill-rule="nonzero"/></g></g></g></g></g></g><g clip-path="url(#ec2a1dffd7)"><g clip-path="url(#80e7e1d8e3)"><g transform="matrix(1, 0, 0, 1, 1408, 86)"><g clip-path="url(#5617d1aaa3)"><g clip-path="url(#115b67cede)"><g clip-path="url(#020bb29395)"><path fill="#eb2027" d="M 0.601562 0.796875 L 74.03125 0.796875 L 74.03125 73.375 L 0.601562 73.375 Z M 0.601562 0.796875 " fill-opacity="1" fill-rule="nonzero"/></g></g></g></g></g></g><g clip-path="url(#be09ead744)"><g clip-path="url(#fab68265e9)"><g transform="matrix(1, 0, 0, 1, 1495, 86)"><g clip-path="url(#9d9085cbc8)"><g clip-path="url(#56bc13e8c3)"><g clip-path="url(#61b60e3613)"><path fill="#eb2027" d="M 0.167969 0.796875 L 61.378906 0.796875 L 61.378906 71.570312 L 0.167969 71.570312 Z M 0.167969 0.796875 " fill-opacity="1" fill-rule="nonzero"/></g></g></g></g></g></g></svg>