<svg xmlns="http://www.w3.org/2000/svg" xmlns:xlink="http://www.w3.org/1999/xlink" width="2000" zoomAndPan="magnify" viewBox="0 0 1500 1499.999933" height="2000" preserveAspectRatio="xMidYMid meet" version="1.0"><defs><clipPath id="35047464df"><path d="M 114.691406 0 L 1385.425781 0 L 1385.425781 1500 L 114.691406 1500 Z M 114.691406 0 " clip-rule="nonzero"/></clipPath></defs><g clip-path="url(#35047464df)"><path fill="#faaf42" d="M 171.378906 798.851562 C 156.355469 748.828125 144.390625 697.886719 135.402344 646.4375 C 126.246094 594.085938 120.199219 541.183594 117.089844 488.125 C 115.230469 456.128906 114.390625 424.054688 114.78125 392.011719 C 115.140625 362.234375 116.566406 332.425781 119.386719 302.769531 L 125.765625 235.742188 L 193.214844 234.449219 C 253.941406 233.308594 314.546875 226.226562 373.738281 212.640625 C 430.546875 199.601562 485.855469 180.613281 538.398438 155.355469 C 568.730469 140.78125 598.253906 124.089844 626.246094 105.390625 C 651.640625 88.429688 676.074219 69.59375 698.332031 48.65625 L 750.066406 -0.015625 L 801.800781 48.65625 C 824.058594 69.59375 848.476562 88.429688 873.886719 105.390625 C 901.878906 124.089844 931.402344 140.78125 961.734375 155.355469 C 1014.277344 180.613281 1069.585938 199.601562 1126.378906 212.640625 C 1185.585938 226.226562 1246.191406 233.308594 1306.902344 234.449219 L 1374.367188 235.742188 L 1380.746094 302.769531 C 1383.550781 332.425781 1384.976562 362.234375 1385.351562 392.011719 C 1385.726562 424.054688 1384.902344 456.128906 1383.027344 488.125 C 1379.933594 541.183594 1373.886719 594.085938 1364.730469 646.4375 C 1355.738281 697.886719 1343.777344 748.828125 1328.753906 798.851562 C 1285.828125 941.761719 1218.695312 1074.574219 1125.628906 1191.445312 C 1032.289062 1308.679688 917.457031 1404.179688 787.601562 1478.589844 L 750.066406 1500.113281 L 712.515625 1478.589844 C 582.675781 1404.179688 467.828125 1308.679688 374.488281 1191.445312 C 281.4375 1074.574219 214.300781 941.761719 171.378906 798.851562 Z M 750.066406 1423.644531 L 754.644531 1421.019531 C 877.175781 1350.808594 985.65625 1260.800781 1073.742188 1150.171875 C 1161.511719 1039.933594 1224.714844 914.640625 1265.191406 779.863281 C 1279.464844 732.332031 1290.8125 683.914062 1299.351562 635.03125 C 1308.058594 585.21875 1313.894531 534.894531 1316.851562 484.402344 C 1318.636719 453.921875 1319.492188 423.347656 1319.132812 392.804688 C 1318.789062 364.832031 1317.4375 336.855469 1314.796875 309.011719 L 1314.015625 300.832031 L 1305.792969 300.667969 C 1240.472656 299.4375 1175.277344 291.875 1111.578125 277.253906 C 1050 263.132812 990.085938 242.449219 933.125 215.074219 C 899.957031 199.121094 867.660156 180.882812 837.042969 160.441406 C 808.613281 141.457031 781.285156 120.371094 756.382812 96.925781 L 750.066406 90.996094 L 743.746094 96.925781 C 718.832031 120.371094 691.515625 141.457031 663.089844 160.441406 C 632.472656 180.882812 600.175781 199.121094 567.003906 215.074219 C 510.046875 242.449219 450.132812 263.132812 388.554688 277.253906 C 324.855469 291.875 259.644531 299.4375 194.324219 300.667969 L 186.117188 300.832031 L 185.335938 309.011719 C 182.695312 336.855469 181.34375 364.832031 181 392.804688 C 180.636719 423.347656 181.492188 453.921875 183.28125 484.402344 C 186.234375 534.894531 192.058594 585.21875 200.765625 635.015625 C 209.320312 683.914062 220.667969 732.332031 234.9375 779.863281 C 275.417969 914.65625 338.617188 1039.933594 426.390625 1150.171875 C 514.476562 1260.800781 622.957031 1350.808594 745.488281 1421.019531 L 750.066406 1423.644531 " fill-opacity="1" fill-rule="evenodd"/></g><path fill="#faaf42" d="M 1253.050781 356.949219 C 1109.554688 351.59375 994.992188 315.4375 909.546875 274.371094 C 833.332031 237.722656 780.128906 197.152344 750.066406 170.886719 C 719.988281 197.152344 666.796875 237.722656 590.585938 274.371094 C 505.125 315.4375 390.578125 351.59375 247.066406 356.949219 C 242.144531 425.449219 238.917969 587.078125 294.011719 770.515625 C 353.566406 968.792969 481.578125 1192.285156 750.066406 1349.773438 C 1018.554688 1192.300781 1146.550781 968.792969 1206.117188 770.515625 C 1261.199219 587.078125 1257.988281 425.449219 1253.050781 356.949219 " fill-opacity="1" fill-rule="evenodd"/></svg>
