<svg xmlns="http://www.w3.org/2000/svg" xmlns:xlink="http://www.w3.org/1999/xlink" width="2000" zoomAndPan="magnify" viewBox="0 0 1500 1499.999933" height="2000" preserveAspectRatio="xMidYMid meet" version="1.0"><defs><g/><clipPath id="98dc44ccb6"><path d="M 0.828125 0 L 1187.214844 0 L 1187.214844 690.703125 L 0.828125 690.703125 Z M 0.828125 0 " clip-rule="nonzero"/></clipPath><clipPath id="f0c47fad51"><path d="M 0.828125 535.144531 L 1187.214844 535.144531 L 1187.214844 1499.808594 L 0.828125 1499.808594 Z M 0.828125 535.144531 " clip-rule="nonzero"/></clipPath><clipPath id="b3ffc83022"><rect x="0" width="906" y="0" height="711"/></clipPath><clipPath id="f13f66f51e"><path d="M 459.117188 925.835938 L 728.433594 925.835938 L 728.433594 1274 L 459.117188 1274 Z M 459.117188 925.835938 " clip-rule="nonzero"/></clipPath><clipPath id="670fdf39dd"><rect x="0" width="1188" y="0" height="1500"/></clipPath></defs><g transform="matrix(1, 0, 0, 1, 156, 0.000000000000112861)"><g clip-path="url(#670fdf39dd)"><g clip-path="url(#98dc44ccb6)"><path fill="#faaf42" d="M 593.996094 0.574219 L 569.664062 14.347656 C 569.664062 14.347656 340.085938 143.460938 50.261719 143.460938 L 0.828125 143.460938 L 0.828125 699.808594 C 0.828125 917.101562 151.304688 1074.109375 293.679688 1174.289062 C 436.050781 1274.46875 577.773438 1323.351562 577.773438 1323.351562 L 593.996094 1328.886719 L 610.214844 1323.351562 C 610.214844 1323.351562 751.9375 1274.476562 894.308594 1174.289062 C 1036.683594 1074.101562 1187.160156 917 1187.160156 699.679688 L 1187.160156 143.332031 L 1137.730469 143.332031 C 847.910156 143.394531 618.324219 14.347656 618.324219 14.347656 Z M 593.996094 110.890625 C 625.246094 127.839844 817.660156 224.441406 1088.296875 237.300781 L 1088.296875 699.679688 C 1088.296875 870.882812 966.90625 1002.324219 837.414062 1093.449219 C 716.003906 1178.886719 608.746094 1216.09375 593.996094 1221.402344 C 579.242188 1216.09375 471.984375 1178.878906 350.574219 1093.449219 C 221.082031 1002.332031 99.691406 870.972656 99.691406 699.808594 L 99.691406 237.429688 C 370.324219 224.519531 562.742188 127.839844 593.996094 110.890625 Z M 593.996094 110.890625 " fill-opacity="1" fill-rule="nonzero"/></g><g clip-path="url(#f0c47fad51)"><path fill="#faaf42" d="M 593.996094 171.339844 L 569.664062 185.113281 C 569.664062 185.113281 340.085938 314.226562 50.261719 314.226562 L 0.828125 314.226562 L 0.828125 870.574219 C 0.828125 1087.867188 151.304688 1244.875 293.679688 1345.054688 C 436.050781 1445.234375 577.773438 1494.121094 577.773438 1494.121094 L 593.996094 1499.65625 L 610.214844 1494.121094 C 610.214844 1494.121094 751.9375 1445.242188 894.308594 1345.054688 C 1036.683594 1244.867188 1187.160156 1087.765625 1187.160156 870.445312 L 1187.160156 314.097656 L 1137.730469 314.097656 C 847.910156 314.160156 618.324219 185.113281 618.324219 185.113281 Z M 593.996094 281.65625 C 625.246094 298.605469 817.660156 395.210938 1088.296875 408.066406 L 1088.296875 870.445312 C 1088.296875 1041.648438 966.90625 1173.089844 837.414062 1264.214844 C 716.003906 1349.652344 608.746094 1386.859375 593.996094 1392.167969 C 579.242188 1386.859375 471.984375 1349.644531 350.574219 1264.214844 C 221.082031 1173.097656 99.691406 1041.742188 99.691406 870.574219 L 99.691406 408.195312 C 370.324219 395.285156 562.742188 298.605469 593.996094 281.65625 Z M 593.996094 281.65625 " fill-opacity="1" fill-rule="nonzero"/></g><g transform="matrix(1, 0, 0, 1, 141, 179)"><g clip-path="url(#b3ffc83022)"><g fill="#faaf42" fill-opacity="1"><g transform="translate(51.549625, 310.381001)"><g><path d="M 86.90625 3.78125 C 73.46875 3.78125 60.082031 1.316406 46.75 -3.609375 C 33.425781 -8.546875 21.515625 -15.945312 11.015625 -25.8125 L 37.46875 -57.625 C 44.8125 -51.320312 52.941406 -46.175781 61.859375 -42.1875 C 70.785156 -38.195312 79.550781 -36.203125 88.15625 -36.203125 C 97.8125 -36.203125 105 -37.984375 109.71875 -41.546875 C 114.445312 -45.117188 116.8125 -49.953125 116.8125 -56.046875 C 116.8125 -59.191406 116.128906 -61.914062 114.765625 -64.21875 C 113.398438 -66.53125 111.40625 -68.578125 108.78125 -70.359375 C 106.15625 -72.148438 103.003906 -73.832031 99.328125 -75.40625 C 95.660156 -76.976562 91.625 -78.710938 87.21875 -80.609375 L 60.453125 -91.9375 C 55.203125 -94.039062 50.109375 -96.769531 45.171875 -100.125 C 40.242188 -103.476562 35.835938 -107.410156 31.953125 -111.921875 C 28.078125 -116.441406 24.984375 -121.691406 22.671875 -127.671875 C 20.359375 -133.660156 19.203125 -140.429688 19.203125 -147.984375 C 19.203125 -156.378906 20.984375 -164.300781 24.546875 -171.75 C 28.117188 -179.207031 33.160156 -185.71875 39.671875 -191.28125 C 46.179688 -196.84375 53.894531 -201.195312 62.8125 -204.34375 C 71.738281 -207.488281 81.550781 -209.0625 92.25 -209.0625 C 104.21875 -209.0625 116.023438 -206.753906 127.671875 -202.140625 C 139.328125 -197.523438 149.5625 -190.804688 158.375 -181.984375 L 134.765625 -152.703125 C 128.046875 -157.953125 121.328125 -161.992188 114.609375 -164.828125 C 107.890625 -167.660156 100.4375 -169.078125 92.25 -169.078125 C 84.28125 -169.078125 77.929688 -167.445312 73.203125 -164.1875 C 68.484375 -160.9375 66.125 -156.375 66.125 -150.5 C 66.125 -147.351562 66.910156 -144.675781 68.484375 -142.46875 C 70.054688 -140.269531 72.257812 -138.273438 75.09375 -136.484375 C 77.925781 -134.703125 81.226562 -133.023438 85 -131.453125 C 88.78125 -129.878906 92.878906 -128.148438 97.296875 -126.265625 L 123.734375 -115.546875 C 136.328125 -110.515625 146.242188 -103.585938 153.484375 -94.765625 C 160.734375 -85.953125 164.359375 -74.304688 164.359375 -59.828125 C 164.359375 -51.210938 162.625 -43.070312 159.15625 -35.40625 C 155.695312 -27.75 150.660156 -21.035156 144.046875 -15.265625 C 137.429688 -9.492188 129.296875 -4.875 119.640625 -1.40625 C 109.984375 2.050781 99.070312 3.78125 86.90625 3.78125 Z M 86.90625 3.78125 "/></g></g></g><g fill="#faaf42" fill-opacity="1"><g transform="translate(226.610934, 310.381001)"><g><path d="M 107.6875 3.78125 C 93.832031 3.78125 81.179688 1.316406 69.734375 -3.609375 C 58.296875 -8.546875 48.484375 -15.632812 40.296875 -24.875 C 32.109375 -34.113281 25.757812 -45.34375 21.25 -58.5625 C 16.738281 -71.789062 14.484375 -86.800781 14.484375 -103.59375 C 14.484375 -120.382812 16.738281 -135.335938 21.25 -148.453125 C 25.757812 -161.578125 32.109375 -172.597656 40.296875 -181.515625 C 48.484375 -190.429688 58.296875 -197.25 69.734375 -201.96875 C 81.179688 -206.695312 93.832031 -209.0625 107.6875 -209.0625 C 121.539062 -209.0625 134.1875 -206.695312 145.625 -201.96875 C 157.0625 -197.25 166.875 -190.375 175.0625 -181.34375 C 183.25 -172.320312 189.597656 -161.253906 194.109375 -148.140625 C 198.617188 -135.023438 200.875 -120.175781 200.875 -103.59375 C 200.875 -86.800781 198.617188 -71.789062 194.109375 -58.5625 C 189.597656 -45.34375 183.25 -34.113281 175.0625 -24.875 C 166.875 -15.632812 157.0625 -8.546875 145.625 -3.609375 C 134.1875 1.316406 121.539062 3.78125 107.6875 3.78125 Z M 107.6875 -36.203125 C 121.75 -36.203125 132.875 -42.238281 141.0625 -54.3125 C 149.25 -66.382812 153.34375 -82.8125 153.34375 -103.59375 C 153.34375 -124.15625 149.25 -140.207031 141.0625 -151.75 C 132.875 -163.300781 121.75 -169.078125 107.6875 -169.078125 C 93.625 -169.078125 82.5 -163.300781 74.3125 -151.75 C 66.125 -140.207031 62.03125 -124.15625 62.03125 -103.59375 C 62.03125 -82.8125 66.125 -66.382812 74.3125 -54.3125 C 82.5 -42.238281 93.625 -36.203125 107.6875 -36.203125 Z M 107.6875 -36.203125 "/></g></g></g><g fill="#faaf42" fill-opacity="1"><g transform="translate(441.974136, 310.381001)"><g><path d="M 109.890625 3.78125 C 96.867188 3.78125 84.585938 1.523438 73.046875 -2.984375 C 61.503906 -7.503906 51.375 -14.171875 42.65625 -22.984375 C 33.945312 -31.796875 27.070312 -42.757812 22.03125 -55.875 C 17 -69 14.484375 -84.171875 14.484375 -101.390625 C 14.484375 -118.390625 17.101562 -133.550781 22.34375 -146.875 C 27.59375 -160.207031 34.625 -171.488281 43.4375 -180.71875 C 52.257812 -189.957031 62.546875 -196.988281 74.296875 -201.8125 C 86.054688 -206.644531 98.441406 -209.0625 111.453125 -209.0625 C 124.679688 -209.0625 136.539062 -206.382812 147.03125 -201.03125 C 157.53125 -195.6875 166.242188 -189.441406 173.171875 -182.296875 L 148.609375 -152.703125 C 143.359375 -157.535156 137.847656 -161.472656 132.078125 -164.515625 C 126.304688 -167.554688 119.75 -169.078125 112.40625 -169.078125 C 105.476562 -169.078125 98.914062 -167.554688 92.71875 -164.515625 C 86.53125 -161.472656 81.179688 -157.117188 76.671875 -151.453125 C 72.160156 -145.785156 68.59375 -138.859375 65.96875 -130.671875 C 63.34375 -122.484375 62.03125 -113.242188 62.03125 -102.953125 C 62.03125 -81.753906 66.539062 -65.328125 75.5625 -53.671875 C 84.59375 -42.023438 96.664062 -36.203125 111.78125 -36.203125 C 120.175781 -36.203125 127.675781 -38.039062 134.28125 -41.71875 C 140.894531 -45.394531 146.722656 -49.960938 151.765625 -55.421875 L 176.328125 -26.453125 C 159.109375 -6.296875 136.960938 3.78125 109.890625 3.78125 Z M 109.890625 3.78125 "/></g></g></g><g fill="#faaf42" fill-opacity="1"><g transform="translate(625.221806, 310.381001)"><g/></g></g><g fill="#faaf42" fill-opacity="1"><g transform="translate(688.193457, 310.381001)"><g><path d="M 11.65625 0 L 11.65625 -26.453125 C 24.457031 -38.410156 36.15625 -49.582031 46.75 -59.96875 C 57.351562 -70.363281 66.484375 -80.125 74.140625 -89.25 C 81.804688 -98.382812 87.789062 -106.890625 92.09375 -114.765625 C 96.394531 -122.640625 98.546875 -130.144531 98.546875 -137.28125 C 98.546875 -147.144531 96.023438 -154.644531 90.984375 -159.78125 C 85.953125 -164.925781 79.03125 -167.5 70.21875 -167.5 C 62.863281 -167.5 56.351562 -165.453125 50.6875 -161.359375 C 45.019531 -157.265625 39.671875 -152.492188 34.640625 -147.046875 L 9.453125 -171.90625 C 19.316406 -182.40625 29.390625 -190.332031 39.671875 -195.6875 C 49.953125 -201.039062 62.234375 -203.71875 76.515625 -203.71875 C 86.378906 -203.71875 95.347656 -202.191406 103.421875 -199.140625 C 111.503906 -196.097656 118.484375 -191.796875 124.359375 -186.234375 C 130.242188 -180.671875 134.757812 -174.003906 137.90625 -166.234375 C 141.050781 -158.472656 142.625 -149.765625 142.625 -140.109375 C 142.625 -131.710938 140.835938 -123.160156 137.265625 -114.453125 C 133.703125 -105.742188 128.929688 -97.03125 122.953125 -88.3125 C 116.972656 -79.601562 110.148438 -70.894531 102.484375 -62.1875 C 94.828125 -53.476562 86.90625 -44.925781 78.71875 -36.53125 C 83.75 -37.15625 89.359375 -37.726562 95.546875 -38.25 C 101.742188 -38.78125 107.257812 -39.046875 112.09375 -39.046875 L 152.390625 -39.046875 L 152.390625 0 Z M 11.65625 0 "/></g></g></g><g fill="#faaf42" fill-opacity="1"><g transform="translate(0.864617, 624.335383)"><g><path d="M 64.234375 0 L 64.234375 -166.25 L 7.875 -166.25 L 7.875 -205.28125 L 167.1875 -205.28125 L 167.1875 -166.25 L 110.828125 -166.25 L 110.828125 0 Z M 64.234375 0 "/></g></g></g><g fill="#faaf42" fill-opacity="1"><g transform="translate(168.369307, 624.335383)"><g><path d="M 37.78125 61.078125 C 32.957031 61.078125 28.863281 60.816406 25.5 60.296875 C 22.144531 59.773438 18.894531 58.988281 15.75 57.9375 L 23.921875 22.671875 C 25.398438 23.085938 27.082031 23.503906 28.96875 23.921875 C 30.851562 24.347656 32.632812 24.5625 34.3125 24.5625 C 42.082031 24.5625 48.066406 22.671875 52.265625 18.890625 C 56.460938 15.109375 59.613281 10.175781 61.71875 4.09375 L 63.921875 -4.09375 L 3.78125 -156.171875 L 50.375 -156.171875 L 72.734375 -89.109375 C 75.046875 -81.972656 77.144531 -74.726562 79.03125 -67.375 C 80.914062 -60.03125 82.910156 -52.472656 85.015625 -44.703125 L 86.265625 -44.703125 C 87.953125 -52.054688 89.6875 -59.457031 91.46875 -66.90625 C 93.25 -74.351562 95.085938 -81.753906 96.984375 -89.109375 L 115.875 -156.171875 L 160.265625 -156.171875 L 106.109375 1.578125 C 102.328125 11.441406 98.390625 20.097656 94.296875 27.546875 C 90.203125 35.003906 85.476562 41.195312 80.125 46.125 C 74.78125 51.0625 68.695312 54.785156 61.875 57.296875 C 55.050781 59.816406 47.019531 61.078125 37.78125 61.078125 Z M 37.78125 61.078125 "/></g></g></g><g fill="#faaf42" fill-opacity="1"><g transform="translate(332.410598, 624.335383)"><g><path d="M 20.46875 57.9375 L 20.46875 -156.171875 L 58.25 -156.171875 L 61.390625 -140.734375 L 62.65625 -140.734375 C 68.738281 -146.191406 75.609375 -150.757812 83.265625 -154.4375 C 90.929688 -158.113281 98.859375 -159.953125 107.046875 -159.953125 C 116.492188 -159.953125 124.992188 -158.0625 132.546875 -154.28125 C 140.109375 -150.5 146.515625 -145.144531 151.765625 -138.21875 C 157.015625 -131.289062 161.054688 -122.945312 163.890625 -113.1875 C 166.722656 -103.425781 168.140625 -92.566406 168.140625 -80.609375 C 168.140625 -67.171875 166.300781 -55.253906 162.625 -44.859375 C 158.945312 -34.472656 154.007812 -25.660156 147.8125 -18.421875 C 141.625 -11.179688 134.59375 -5.671875 126.71875 -1.890625 C 118.851562 1.890625 110.722656 3.78125 102.328125 3.78125 C 95.609375 3.78125 89.097656 2.363281 82.796875 -0.46875 C 76.503906 -3.300781 70.628906 -7.34375 65.171875 -12.59375 L 66.75 12.28125 L 66.75 57.9375 Z M 91.625 -34 C 99.601562 -34 106.425781 -37.617188 112.09375 -44.859375 C 117.757812 -52.109375 120.59375 -63.8125 120.59375 -79.96875 C 120.59375 -108.101562 111.566406 -122.171875 93.515625 -122.171875 C 84.484375 -122.171875 75.5625 -117.445312 66.75 -108 L 66.75 -44.078125 C 70.945312 -40.296875 75.144531 -37.671875 79.34375 -36.203125 C 83.539062 -34.734375 87.632812 -34 91.625 -34 Z M 91.625 -34 "/></g></g></g><g fill="#faaf42" fill-opacity="1"><g transform="translate(512.824494, 624.335383)"><g><path d="M 90.359375 3.78125 C 79.234375 3.78125 68.84375 1.945312 59.1875 -1.71875 C 49.53125 -5.394531 41.132812 -10.75 34 -17.78125 C 26.863281 -24.820312 21.300781 -33.378906 17.3125 -43.453125 C 13.320312 -53.523438 11.328125 -65.066406 11.328125 -78.078125 C 11.328125 -90.679688 13.425781 -102.070312 17.625 -112.25 C 21.820312 -122.425781 27.332031 -131.03125 34.15625 -138.0625 C 40.976562 -145.09375 48.796875 -150.5 57.609375 -154.28125 C 66.429688 -158.0625 75.566406 -159.953125 85.015625 -159.953125 C 96.140625 -159.953125 105.847656 -158.0625 114.140625 -154.28125 C 122.429688 -150.5 129.359375 -145.25 134.921875 -138.53125 C 140.484375 -131.820312 144.628906 -123.898438 147.359375 -114.765625 C 150.085938 -105.628906 151.453125 -95.710938 151.453125 -85.015625 C 151.453125 -80.816406 151.238281 -76.828125 150.8125 -73.046875 C 150.394531 -69.265625 149.976562 -66.429688 149.5625 -64.546875 L 56.046875 -64.546875 C 58.140625 -53.210938 62.804688 -44.867188 70.046875 -39.515625 C 77.296875 -34.160156 86.164062 -31.484375 96.65625 -31.484375 C 107.78125 -31.484375 119.015625 -34.945312 130.359375 -41.875 L 145.78125 -13.859375 C 137.800781 -8.398438 128.929688 -4.09375 119.171875 -0.9375 C 109.410156 2.207031 99.804688 3.78125 90.359375 3.78125 Z M 55.734375 -95.09375 L 112.09375 -95.09375 C 112.09375 -103.90625 110.097656 -111.039062 106.109375 -116.5 C 102.117188 -121.957031 95.398438 -124.6875 85.953125 -124.6875 C 78.609375 -124.6875 72.15625 -122.269531 66.59375 -117.4375 C 61.03125 -112.613281 57.410156 -105.164062 55.734375 -95.09375 Z M 55.734375 -95.09375 "/></g></g></g><g fill="#faaf42" fill-opacity="1"><g transform="translate(675.921232, 624.335383)"><g/></g></g><g fill="#faaf42" fill-opacity="1"><g transform="translate(738.892883, 624.335383)"><g><path d="M 11.65625 0 L 11.65625 -26.453125 C 24.457031 -38.410156 36.15625 -49.582031 46.75 -59.96875 C 57.351562 -70.363281 66.484375 -80.125 74.140625 -89.25 C 81.804688 -98.382812 87.789062 -106.890625 92.09375 -114.765625 C 96.394531 -122.640625 98.546875 -130.144531 98.546875 -137.28125 C 98.546875 -147.144531 96.023438 -154.644531 90.984375 -159.78125 C 85.953125 -164.925781 79.03125 -167.5 70.21875 -167.5 C 62.863281 -167.5 56.351562 -165.453125 50.6875 -161.359375 C 45.019531 -157.265625 39.671875 -152.492188 34.640625 -147.046875 L 9.453125 -171.90625 C 19.316406 -182.40625 29.390625 -190.332031 39.671875 -195.6875 C 49.953125 -201.039062 62.234375 -203.71875 76.515625 -203.71875 C 86.378906 -203.71875 95.347656 -202.191406 103.421875 -199.140625 C 111.503906 -196.097656 118.484375 -191.796875 124.359375 -186.234375 C 130.242188 -180.671875 134.757812 -174.003906 137.90625 -166.234375 C 141.050781 -158.472656 142.625 -149.765625 142.625 -140.109375 C 142.625 -131.710938 140.835938 -123.160156 137.265625 -114.453125 C 133.703125 -105.742188 128.929688 -97.03125 122.953125 -88.3125 C 116.972656 -79.601562 110.148438 -70.894531 102.484375 -62.1875 C 94.828125 -53.476562 86.90625 -44.925781 78.71875 -36.53125 C 83.75 -37.15625 89.359375 -37.726562 95.546875 -38.25 C 101.742188 -38.78125 107.257812 -39.046875 112.09375 -39.046875 L 152.390625 -39.046875 L 152.390625 0 Z M 11.65625 0 "/></g></g></g></g></g><g clip-path="url(#f13f66f51e)"><path fill="#faaf42" d="M 699.957031 1060.34375 L 699.957031 1031.789062 C 699.957031 973.375 652.414062 925.835938 594.003906 925.835938 C 535.59375 925.835938 488.03125 973.363281 488.03125 1031.789062 L 488.03125 1060.34375 C 472.035156 1060.777344 459.183594 1073.808594 459.183594 1089.910156 L 459.183594 1244.253906 C 459.183594 1245.226562 459.230469 1246.195312 459.324219 1247.160156 C 459.417969 1248.128906 459.5625 1249.085938 459.75 1250.039062 C 459.941406 1250.992188 460.175781 1251.933594 460.457031 1252.863281 C 460.738281 1253.792969 461.066406 1254.703125 461.4375 1255.601562 C 461.808594 1256.5 462.222656 1257.375 462.683594 1258.230469 C 463.140625 1259.089844 463.636719 1259.921875 464.175781 1260.726562 C 464.71875 1261.535156 465.292969 1262.3125 465.910156 1263.066406 C 466.527344 1263.816406 467.175781 1264.535156 467.863281 1265.222656 C 468.550781 1265.90625 469.269531 1266.558594 470.019531 1267.175781 C 470.769531 1267.789062 471.550781 1268.367188 472.355469 1268.910156 C 473.164062 1269.449219 473.996094 1269.945312 474.851562 1270.40625 C 475.707031 1270.863281 476.585938 1271.277344 477.480469 1271.648438 C 478.378906 1272.019531 479.292969 1272.347656 480.222656 1272.628906 C 481.152344 1272.910156 482.089844 1273.148438 483.042969 1273.335938 C 483.996094 1273.527344 484.957031 1273.667969 485.921875 1273.761719 C 486.886719 1273.859375 487.855469 1273.90625 488.828125 1273.90625 L 699.164062 1273.90625 C 700.132812 1273.90625 701.101562 1273.859375 702.070312 1273.761719 C 703.035156 1273.667969 703.996094 1273.527344 704.949219 1273.335938 C 705.898438 1273.148438 706.839844 1272.910156 707.769531 1272.628906 C 708.699219 1272.347656 709.613281 1272.019531 710.507812 1271.648438 C 711.40625 1271.277344 712.28125 1270.863281 713.140625 1270.40625 C 713.996094 1269.949219 714.828125 1269.449219 715.636719 1268.910156 C 716.441406 1268.371094 717.222656 1267.792969 717.972656 1267.175781 C 718.722656 1266.5625 719.441406 1265.910156 720.128906 1265.222656 C 720.816406 1264.535156 721.464844 1263.816406 722.082031 1263.066406 C 722.699219 1262.316406 723.277344 1261.539062 723.816406 1260.730469 C 724.355469 1259.921875 724.855469 1259.089844 725.3125 1258.234375 C 725.769531 1257.378906 726.183594 1256.5 726.554688 1255.605469 C 726.925781 1254.707031 727.253906 1253.792969 727.535156 1252.863281 C 727.820312 1251.933594 728.054688 1250.996094 728.242188 1250.042969 C 728.433594 1249.089844 728.574219 1248.128906 728.671875 1247.164062 C 728.765625 1246.199219 728.8125 1245.230469 728.8125 1244.257812 L 728.8125 1089.910156 C 728.8125 1073.808594 715.953125 1060.773438 699.957031 1060.34375 Z M 618.25 1145.753906 C 618.117188 1146.671875 617.601562 1148.769531 617.554688 1148.929688 C 615.746094 1155.203125 611.417969 1160.351562 605.800781 1163.484375 L 615.320312 1204.0625 C 615.457031 1204.480469 615.542969 1204.910156 615.582031 1205.347656 C 615.621094 1205.789062 615.605469 1206.226562 615.539062 1206.660156 C 615.476562 1207.097656 615.359375 1207.519531 615.195312 1207.929688 C 615.03125 1208.339844 614.824219 1208.722656 614.570312 1209.082031 C 614.316406 1209.441406 614.023438 1209.769531 613.691406 1210.058594 C 613.359375 1210.351562 613 1210.601562 612.613281 1210.808594 C 612.222656 1211.015625 611.816406 1211.175781 611.390625 1211.285156 C 610.960938 1211.398438 610.527344 1211.457031 610.089844 1211.46875 L 578.550781 1211.46875 C 578.109375 1211.457031 577.675781 1211.398438 577.25 1211.285156 C 576.824219 1211.175781 576.417969 1211.015625 576.027344 1210.808594 C 575.636719 1210.601562 575.277344 1210.351562 574.949219 1210.058594 C 574.617188 1209.769531 574.324219 1209.441406 574.070312 1209.082031 C 573.816406 1208.722656 573.609375 1208.339844 573.445312 1207.929688 C 573.28125 1207.519531 573.164062 1207.097656 573.101562 1206.660156 C 573.035156 1206.226562 573.023438 1205.789062 573.058594 1205.347656 C 573.097656 1204.910156 573.183594 1204.480469 573.324219 1204.0625 L 582.195312 1163.484375 C 576.574219 1160.351562 572.25 1155.203125 570.441406 1148.929688 C 570.394531 1148.769531 569.875 1146.671875 569.746094 1145.753906 C 569.578125 1144.621094 569.492188 1143.484375 569.492188 1142.335938 C 569.492188 1141.535156 569.53125 1140.734375 569.609375 1139.933594 C 569.6875 1139.136719 569.804688 1138.34375 569.960938 1137.554688 C 570.117188 1136.769531 570.3125 1135.992188 570.546875 1135.222656 C 570.777344 1134.453125 571.046875 1133.699219 571.355469 1132.957031 C 571.664062 1132.214844 572.003906 1131.492188 572.382812 1130.78125 C 572.761719 1130.074219 573.171875 1129.386719 573.621094 1128.71875 C 574.066406 1128.050781 574.542969 1127.40625 575.050781 1126.789062 C 575.5625 1126.167969 576.097656 1125.574219 576.667969 1125.003906 C 577.234375 1124.4375 577.828125 1123.898438 578.449219 1123.390625 C 579.070312 1122.878906 579.710938 1122.402344 580.378906 1121.957031 C 581.046875 1121.511719 581.734375 1121.097656 582.441406 1120.71875 C 583.152344 1120.339844 583.875 1119.996094 584.617188 1119.691406 C 585.359375 1119.382812 586.113281 1119.113281 586.882812 1118.878906 C 587.648438 1118.648438 588.429688 1118.453125 589.214844 1118.296875 C 590.003906 1118.140625 590.796875 1118.019531 591.59375 1117.941406 C 592.394531 1117.863281 593.195312 1117.824219 593.996094 1117.824219 C 594.800781 1117.824219 595.601562 1117.863281 596.398438 1117.941406 C 597.199219 1118.019531 597.992188 1118.140625 598.777344 1118.296875 C 599.566406 1118.453125 600.34375 1118.648438 601.113281 1118.878906 C 601.878906 1119.113281 602.632812 1119.382812 603.375 1119.691406 C 604.117188 1119.996094 604.84375 1120.339844 605.550781 1120.71875 C 606.257812 1121.097656 606.945312 1121.511719 607.613281 1121.957031 C 608.28125 1122.402344 608.925781 1122.878906 609.546875 1123.390625 C 610.164062 1123.898438 610.757812 1124.4375 611.328125 1125.003906 C 611.894531 1125.574219 612.433594 1126.167969 612.941406 1126.789062 C 613.449219 1127.40625 613.929688 1128.050781 614.375 1128.71875 C 614.820312 1129.386719 615.230469 1130.074219 615.609375 1130.78125 C 615.988281 1131.492188 616.332031 1132.214844 616.636719 1132.957031 C 616.945312 1133.699219 617.214844 1134.453125 617.449219 1135.222656 C 617.679688 1135.992188 617.875 1136.769531 618.03125 1137.554688 C 618.1875 1138.34375 618.304688 1139.136719 618.382812 1139.933594 C 618.460938 1140.734375 618.5 1141.535156 618.5 1142.339844 C 618.5 1143.484375 618.414062 1144.621094 618.25 1145.753906 Z M 663.777344 1060.261719 L 524.210938 1060.261719 L 524.210938 1031.789062 C 524.210938 993.300781 555.507812 961.996094 594.003906 961.996094 C 632.5 961.996094 663.777344 993.300781 663.777344 1031.789062 Z M 663.777344 1060.261719 " fill-opacity="1" fill-rule="nonzero"/></g></g></g></svg>
