<svg xmlns="http://www.w3.org/2000/svg" xmlns:xlink="http://www.w3.org/1999/xlink" width="1800" zoomAndPan="magnify" viewBox="0 0 1350 1499.999933" height="2000" preserveAspectRatio="xMidYMid meet" version="1.0"><defs><clipPath id="a8336ed4cc"><path d="M 0.46875 0 L 1289.53125 0 L 1289.53125 1500 L 0.46875 1500 Z M 0.46875 0 " clip-rule="nonzero"/></clipPath><clipPath id="94fd572568"><path d="M 645 1500 L 0.46875 1125 L 0.46875 375 L 645 0 L 1289.53125 375 L 1289.53125 1125 Z M 645 1500 " clip-rule="nonzero"/></clipPath><clipPath id="f41b7ef476"><path d="M 0.46875 0 L 1289.53125 0 L 1289.53125 1500 L 0.46875 1500 Z M 0.46875 0 " clip-rule="nonzero"/></clipPath><clipPath id="1241000bfa"><path d="M 645 1500 L 0.46875 1125 L 0.46875 375 L 645 0 L 1289.53125 375 L 1289.53125 1125 Z M 645 1500 " clip-rule="nonzero"/></clipPath><clipPath id="5c1411742b"><rect x="0" width="1290" y="0" height="1500"/></clipPath><clipPath id="ffb65bd4db"><path d="M 160.597656 471.46875 L 1129.28125 471.46875 L 1129.28125 1025 L 160.597656 1025 Z M 160.597656 471.46875 " clip-rule="nonzero"/></clipPath><clipPath id="6cf98015f0"><rect x="0" width="1290" y="0" height="1500"/></clipPath></defs><g transform="matrix(1, 0, 0, 1, 30, 0.000000000000112861)"><g clip-path="url(#6cf98015f0)"><g clip-path="url(#a8336ed4cc)"><g clip-path="url(#94fd572568)"><g transform="matrix(1, 0, 0, 1, 0, 0.000000000000112861)"><g clip-path="url(#5c1411742b)"><g clip-path="url(#f41b7ef476)"><g clip-path="url(#1241000bfa)"><path fill="#e8292f" d="M 1289.53125 0 L 1289.53125 1500.550781 L 0.46875 1500.550781 L 0.46875 0 Z M 1289.53125 0 " fill-opacity="1" fill-rule="nonzero"/></g></g></g></g></g></g><g clip-path="url(#ffb65bd4db)"><path fill="#ffffff" d="M 389.859375 471.46875 C 460.40625 471.46875 517.242188 529.796875 517.242188 602.183594 C 517.242188 674.59375 460.40625 732.898438 389.859375 732.898438 C 319.316406 732.898438 262.480469 674.59375 262.480469 602.183594 C 262.503906 529.796875 319.339844 471.46875 389.886719 471.46875 Z M 617.183594 998.375 L 160.597656 998.375 L 160.597656 891.773438 C 160.597656 829.445312 209.589844 779.160156 270.328125 779.160156 L 505.472656 779.160156 C 566.234375 779.160156 615.222656 829.445312 615.222656 891.773438 L 615.222656 998.375 Z M 888.195312 1024.28125 L 737.542969 1024.28125 L 737.542969 933.9375 L 888.195312 933.9375 Z M 1069 825.25 L 737.542969 825.25 L 737.542969 734.910156 L 1068.976562 734.910156 L 1068.976562 825.273438 Z M 1127.21875 626.246094 L 737.542969 626.246094 L 737.542969 535.929688 L 1129.277344 535.929688 L 1129.277344 626.269531 L 1127.21875 626.269531 Z M 1127.21875 626.246094 " fill-opacity="1" fill-rule="nonzero"/></g></g></g></svg>