<svg xmlns="http://www.w3.org/2000/svg" xmlns:xlink="http://www.w3.org/1999/xlink" width="1800" zoomAndPan="magnify" viewBox="0 0 1350 1499.999933" height="2000" preserveAspectRatio="xMidYMid meet" version="1.0"><defs><clipPath id="c4263fea89"><path d="M 0.46875 0 L 1289.53125 0 L 1289.53125 1500 L 0.46875 1500 Z M 0.46875 0 " clip-rule="nonzero"/></clipPath><clipPath id="135495498c"><path d="M 645 1500 L 0.46875 1125 L 0.46875 375 L 645 0 L 1289.53125 375 L 1289.53125 1125 Z M 645 1500 " clip-rule="nonzero"/></clipPath><clipPath id="21ef1ba99e"><path d="M 0.46875 0 L 1289.53125 0 L 1289.53125 1500 L 0.46875 1500 Z M 0.46875 0 " clip-rule="nonzero"/></clipPath><clipPath id="bde9910c63"><path d="M 645 1500 L 0.46875 1125 L 0.46875 375 L 645 0 L 1289.53125 375 L 1289.53125 1125 Z M 645 1500 " clip-rule="nonzero"/></clipPath><clipPath id="a074b1bb25"><rect x="0" width="1290" y="0" height="1500"/></clipPath><clipPath id="ccab90a7b4"><rect x="0" width="1290" y="0" height="1500"/></clipPath></defs><g transform="matrix(1, 0, 0, 1, 30, 0.000000000000112861)"><g clip-path="url(#ccab90a7b4)"><g clip-path="url(#c4263fea89)"><g clip-path="url(#135495498c)"><g transform="matrix(1, 0, 0, 1, 0, 0.000000000000112861)"><g clip-path="url(#a074b1bb25)"><g clip-path="url(#21ef1ba99e)"><g clip-path="url(#bde9910c63)"><path fill="#e8292f" d="M 1289.53125 0 L 1289.53125 1500.550781 L 0.46875 1500.550781 L 0.46875 0 Z M 1289.53125 0 " fill-opacity="1" fill-rule="nonzero"/></g></g></g></g></g></g><path fill="#ffffff" d="M 1133.730469 658.621094 L 1133.730469 565.058594 C 1133.730469 544.707031 1117.261719 528.457031 1096.691406 528.457031 L 585.375 528.457031 C 582.953125 523.949219 580.378906 519.53125 577.65625 515.199219 C 574.9375 510.863281 572.074219 506.628906 569.066406 502.488281 C 566.0625 498.347656 562.917969 494.316406 559.640625 490.386719 C 556.363281 486.457031 552.957031 482.644531 549.425781 478.945312 C 545.890625 475.246094 542.234375 471.667969 538.460938 468.214844 C 534.6875 464.761719 530.800781 461.441406 526.804688 458.25 C 522.804688 455.058594 518.703125 452.003906 514.5 449.085938 C 510.296875 446.171875 506 443.398438 501.609375 440.773438 C 497.222656 438.148438 492.75 435.671875 488.191406 433.34375 C 483.636719 431.019531 479.007812 428.851562 474.304688 426.835938 C 469.601562 424.820312 464.839844 422.96875 460.011719 421.273438 C 455.183594 419.582031 450.304688 418.050781 445.375 416.6875 C 440.445312 415.320312 435.476562 414.125 430.46875 413.09375 C 425.457031 412.0625 420.417969 411.203125 415.347656 410.511719 C 410.28125 409.820312 405.195312 409.296875 400.09375 408.949219 C 394.988281 408.597656 389.878906 408.421875 384.765625 408.417969 C 259.261719 408.441406 157.414062 509.140625 157.414062 633.203125 C 157.414062 734.917969 226.351562 821.363281 319.953125 848.828125 L 319.953125 1052.226562 C 319.953125 1072.578125 336.421875 1088.855469 356.988281 1088.855469 L 1098.742188 1088.855469 C 1119.308594 1088.855469 1135.777344 1072.554688 1135.777344 1052.226562 L 1135.777344 751.167969 L 579.203125 751.167969 C 595.671875 723.703125 606.980469 692.1875 610.066406 659.632812 L 1133.730469 659.632812 Z M 921.785156 966.792969 C 921.785156 961.703125 925.910156 956.617188 932.082031 956.617188 L 1027.757812 956.617188 C 1032.894531 956.617188 1038.054688 960.691406 1038.054688 966.792969 L 1038.054688 994.234375 C 1038.046875 994.90625 1037.976562 995.570312 1037.84375 996.230469 C 1037.707031 996.886719 1037.507812 997.527344 1037.246094 998.144531 C 1036.984375 998.765625 1036.667969 999.351562 1036.289062 999.90625 C 1035.914062 1000.464844 1035.484375 1000.980469 1035.007812 1001.449219 C 1034.53125 1001.921875 1034.011719 1002.34375 1033.449219 1002.714844 C 1032.890625 1003.085938 1032.296875 1003.398438 1031.675781 1003.652344 C 1031.054688 1003.90625 1030.414062 1004.09375 1029.753906 1004.222656 C 1029.09375 1004.351562 1028.429688 1004.414062 1027.757812 1004.410156 L 932.082031 1004.410156 C 931.410156 1004.414062 930.742188 1004.351562 930.085938 1004.222656 C 929.425781 1004.09375 928.785156 1003.90625 928.160156 1003.652344 C 927.539062 1003.398438 926.949219 1003.085938 926.386719 1002.714844 C 925.828125 1002.34375 925.308594 1001.921875 924.828125 1001.449219 C 924.351562 1000.980469 923.925781 1000.464844 923.546875 999.90625 C 923.171875 999.351562 922.851562 998.765625 922.589844 998.144531 C 922.328125 997.527344 922.132812 996.886719 921.996094 996.230469 C 921.859375 995.570312 921.789062 994.90625 921.785156 994.234375 Z M 753.074219 966.792969 C 753.074219 961.703125 757.199219 956.617188 763.371094 956.617188 L 859.046875 956.617188 C 864.183594 956.617188 869.316406 960.691406 869.316406 966.792969 L 869.316406 994.234375 C 869.3125 994.90625 869.242188 995.570312 869.109375 996.226562 C 868.972656 996.882812 868.773438 997.519531 868.515625 998.140625 C 868.253906 998.757812 867.9375 999.34375 867.558594 999.898438 C 867.183594 1000.457031 866.757812 1000.96875 866.28125 1001.441406 C 865.804688 1001.914062 865.289062 1002.335938 864.726562 1002.707031 C 864.167969 1003.078125 863.578125 1003.390625 862.957031 1003.644531 C 862.335938 1003.898438 861.699219 1004.089844 861.039062 1004.21875 C 860.382812 1004.347656 859.71875 1004.410156 859.046875 1004.410156 L 763.371094 1004.410156 C 762.699219 1004.414062 762.03125 1004.351562 761.375 1004.222656 C 760.714844 1004.09375 760.074219 1003.90625 759.449219 1003.652344 C 758.828125 1003.398438 758.238281 1003.085938 757.675781 1002.714844 C 757.117188 1002.34375 756.597656 1001.921875 756.121094 1001.449219 C 755.640625 1000.980469 755.214844 1000.464844 754.835938 999.90625 C 754.460938 999.351562 754.140625 998.765625 753.878906 998.144531 C 753.617188 997.527344 753.421875 996.886719 753.285156 996.230469 C 753.148438 995.570312 753.078125 994.90625 753.074219 994.234375 Z M 584.363281 966.792969 C 584.363281 961.703125 588.460938 956.617188 594.636719 956.617188 L 689.296875 956.617188 C 694.433594 956.617188 699.570312 960.691406 699.570312 966.792969 L 699.570312 994.234375 C 699.566406 994.90625 699.496094 995.570312 699.359375 996.226562 C 699.226562 996.882812 699.027344 997.519531 698.765625 998.140625 C 698.507812 998.757812 698.1875 999.34375 697.8125 999.902344 C 697.4375 1000.457031 697.011719 1000.96875 696.535156 1001.441406 C 696.058594 1001.914062 695.539062 1002.335938 694.980469 1002.707031 C 694.421875 1003.078125 693.832031 1003.390625 693.210938 1003.644531 C 692.589844 1003.898438 691.949219 1004.089844 691.292969 1004.21875 C 690.632812 1004.347656 689.96875 1004.410156 689.296875 1004.410156 L 594.636719 1004.410156 C 593.964844 1004.410156 593.300781 1004.347656 592.640625 1004.21875 C 591.984375 1004.089844 591.34375 1003.898438 590.722656 1003.644531 C 590.101562 1003.390625 589.511719 1003.078125 588.953125 1002.707031 C 588.394531 1002.335938 587.875 1001.914062 587.398438 1001.441406 C 586.921875 1000.96875 586.496094 1000.457031 586.121094 999.902344 C 585.746094 999.34375 585.425781 998.757812 585.167969 998.140625 C 584.90625 997.519531 584.710938 996.882812 584.574219 996.226562 C 584.4375 995.570312 584.367188 994.90625 584.363281 994.234375 Z M 530.859375 993.222656 C 530.855469 993.894531 530.785156 994.558594 530.648438 995.214844 C 530.511719 995.875 530.316406 996.511719 530.054688 997.132812 C 529.792969 997.75 529.472656 998.339844 529.097656 998.894531 C 528.71875 999.453125 528.292969 999.964844 527.816406 1000.4375 C 527.335938 1000.910156 526.816406 1001.332031 526.257812 1001.703125 C 525.695312 1002.074219 525.105469 1002.382812 524.484375 1002.636719 C 523.859375 1002.890625 523.21875 1003.082031 522.558594 1003.210938 C 521.902344 1003.339844 521.234375 1003.398438 520.5625 1003.398438 L 425.925781 1003.398438 C 425.253906 1003.398438 424.585938 1003.339844 423.925781 1003.210938 C 423.269531 1003.082031 422.628906 1002.890625 422.003906 1002.636719 C 421.382812 1002.382812 420.792969 1002.074219 420.230469 1001.703125 C 419.671875 1001.332031 419.152344 1000.910156 418.671875 1000.4375 C 418.195312 999.964844 417.769531 999.453125 417.390625 998.894531 C 417.015625 998.339844 416.695312 997.75 416.433594 997.132812 C 416.171875 996.511719 415.976562 995.875 415.839844 995.214844 C 415.703125 994.558594 415.632812 993.894531 415.628906 993.222656 L 415.628906 965.78125 C 415.628906 960.714844 419.75 955.628906 425.925781 955.628906 L 520.5625 955.628906 C 525.722656 955.628906 530.859375 959.679688 530.859375 965.78125 L 530.859375 993.246094 Z M 383.753906 817.289062 C 281.90625 817.289062 199.585938 735.929688 199.585938 635.253906 C 199.585938 534.554688 281.90625 453.171875 383.753906 453.171875 C 485.601562 453.171875 567.894531 534.554688 567.894531 635.230469 C 567.894531 734.890625 485.601562 817.261719 383.753906 817.261719 Z M 383.753906 817.289062 " fill-opacity="1" fill-rule="nonzero"/><path fill="#ffffff" d="M 393.011719 614.902344 C 355.976562 601.664062 355.976562 588.449219 355.976562 583.363281 C 355.976562 564.046875 377.582031 563.035156 384.765625 561.996094 C 395.0625 561.996094 405.355469 567.085938 412.542969 571.136719 C 413.054688 571.492188 413.59375 571.800781 414.164062 572.054688 C 414.730469 572.308594 415.320312 572.507812 415.925781 572.652344 C 416.535156 572.796875 417.148438 572.878906 417.773438 572.90625 C 418.394531 572.929688 419.015625 572.898438 419.632812 572.804688 C 420.25 572.714844 420.851562 572.5625 421.441406 572.355469 C 422.027344 572.148438 422.59375 571.890625 423.132812 571.574219 C 423.667969 571.261719 424.175781 570.898438 424.644531 570.488281 C 425.113281 570.078125 425.539062 569.625 425.925781 569.136719 L 441.355469 552.832031 C 445.480469 547.769531 445.480469 540.65625 439.308594 537.59375 C 433.570312 533.523438 427.5 530.035156 421.097656 527.128906 C 414.691406 524.21875 408.070312 521.945312 401.234375 520.304688 L 401.234375 499.976562 C 401.234375 494.890625 397.109375 491.828125 391.976562 491.828125 L 369.332031 491.828125 C 368.792969 491.816406 368.257812 491.859375 367.726562 491.957031 C 367.199219 492.054688 366.683594 492.203125 366.179688 492.40625 C 365.679688 492.605469 365.203125 492.855469 364.753906 493.148438 C 364.300781 493.445312 363.886719 493.785156 363.503906 494.164062 C 363.117188 494.542969 362.777344 494.957031 362.476562 495.40625 C 362.175781 495.855469 361.921875 496.328125 361.71875 496.828125 C 361.511719 497.328125 361.359375 497.84375 361.257812 498.371094 C 361.15625 498.902344 361.105469 499.4375 361.113281 499.976562 L 361.113281 522.328125 C 332.296875 530.480469 312.765625 552.859375 312.765625 582.347656 C 312.765625 614.902344 335.382812 639.304688 378.59375 654.542969 C 409.457031 665.734375 412.542969 673.882812 412.542969 683.023438 C 412.542969 689.125 412.542969 705.402344 384.765625 705.402344 C 370.371094 705.402344 354.9375 696.261719 344.644531 688.109375 C 344.117188 687.722656 343.558594 687.378906 342.96875 687.089844 C 342.382812 686.796875 341.773438 686.558594 341.144531 686.378906 C 340.511719 686.195312 339.871094 686.066406 339.21875 685.996094 C 338.566406 685.925781 337.914062 685.914062 337.257812 685.960938 C 336.605469 686.007812 335.960938 686.109375 335.324219 686.269531 C 334.6875 686.433594 334.070312 686.648438 333.472656 686.917969 C 332.875 687.1875 332.304688 687.507812 331.761719 687.878906 C 331.222656 688.25 330.714844 688.664062 330.25 689.125 L 314.816406 705.425781 C 314.304688 705.9375 313.855469 706.496094 313.464844 707.105469 C 313.074219 707.714844 312.753906 708.359375 312.5 709.035156 C 312.246094 709.710938 312.066406 710.410156 311.964844 711.125 C 311.859375 711.839844 311.832031 712.558594 311.878906 713.28125 C 311.929688 714 312.054688 714.710938 312.253906 715.40625 C 312.457031 716.097656 312.726562 716.765625 313.070312 717.402344 C 313.410156 718.039062 313.816406 718.632812 314.289062 719.183594 C 314.757812 719.730469 315.277344 720.226562 315.855469 720.664062 C 325.113281 727.777344 341.558594 738.96875 361.113281 745.066406 L 361.113281 767.445312 C 361.113281 772.53125 365.234375 776.582031 369.332031 776.582031 L 391.976562 776.582031 C 392.578125 776.589844 393.179688 776.539062 393.773438 776.425781 C 394.367188 776.3125 394.945312 776.144531 395.503906 775.917969 C 396.066406 775.691406 396.597656 775.410156 397.105469 775.078125 C 397.609375 774.746094 398.078125 774.367188 398.507812 773.945312 C 398.9375 773.519531 399.320312 773.054688 399.660156 772.554688 C 400 772.054688 400.285156 771.523438 400.519531 770.96875 C 400.753906 770.410156 400.929688 769.835938 401.050781 769.242188 C 401.171875 768.648438 401.230469 768.050781 401.234375 767.445312 L 401.234375 747.09375 C 435.183594 740.992188 455.75 717.601562 455.75 683.023438 C 455.75 637.253906 411.53125 622.015625 393.011719 614.902344 Z M 393.011719 614.902344 " fill-opacity="1" fill-rule="nonzero"/></g></g></svg>