<svg xmlns="http://www.w3.org/2000/svg" xmlns:xlink="http://www.w3.org/1999/xlink" width="1800" zoomAndPan="magnify" viewBox="0 0 1350 1499.999933" height="2000" preserveAspectRatio="xMidYMid meet" version="1.0"><defs><clipPath id="744d7f0fb5"><path d="M 0.46875 0 L 1289.53125 0 L 1289.53125 1500 L 0.46875 1500 Z M 0.46875 0 " clip-rule="nonzero"/></clipPath><clipPath id="451b8d96b8"><path d="M 645 1500 L 0.46875 1125 L 0.46875 375 L 645 0 L 1289.53125 375 L 1289.53125 1125 Z M 645 1500 " clip-rule="nonzero"/></clipPath><clipPath id="2d41db8677"><path d="M 0.46875 0 L 1289.53125 0 L 1289.53125 1500 L 0.46875 1500 Z M 0.46875 0 " clip-rule="nonzero"/></clipPath><clipPath id="2b41afefa6"><path d="M 645 1500 L 0.46875 1125 L 0.46875 375 L 645 0 L 1289.53125 375 L 1289.53125 1125 Z M 645 1500 " clip-rule="nonzero"/></clipPath><clipPath id="4d3ea80473"><rect x="0" width="1290" y="0" height="1500"/></clipPath><clipPath id="55e34ecfd3"><path d="M 172.230469 395.421875 L 1118 395.421875 L 1118 1104.371094 L 172.230469 1104.371094 Z M 172.230469 395.421875 " clip-rule="nonzero"/></clipPath><clipPath id="7d06b3eeac"><rect x="0" width="1290" y="0" height="1500"/></clipPath></defs><g transform="matrix(1, 0, 0, 1, 30, 0.000000000000112861)"><g clip-path="url(#7d06b3eeac)"><g clip-path="url(#744d7f0fb5)"><g clip-path="url(#451b8d96b8)"><g transform="matrix(1, 0, 0, 1, 0, 0.000000000000112861)"><g clip-path="url(#4d3ea80473)"><g clip-path="url(#2d41db8677)"><g clip-path="url(#2b41afefa6)"><path fill="#e8292f" d="M 1289.53125 0 L 1289.53125 1500.550781 L 0.46875 1500.550781 L 0.46875 0 Z M 1289.53125 0 " fill-opacity="1" fill-rule="nonzero"/></g></g></g></g></g></g><g clip-path="url(#55e34ecfd3)"><path fill="#ffffff" d="M 644.996094 395.421875 C 339.199219 395.421875 176.386719 732.375 176.386719 732.375 C 175.707031 733.738281 175.105469 735.136719 174.585938 736.566406 C 174.066406 738 173.632812 739.457031 173.28125 740.941406 C 172.929688 742.425781 172.667969 743.925781 172.492188 745.4375 C 172.316406 746.953125 172.226562 748.472656 172.226562 749.996094 C 172.226562 751.519531 172.316406 753.039062 172.492188 754.550781 C 172.667969 756.066406 172.929688 757.5625 173.28125 759.046875 C 173.632812 760.53125 174.066406 761.988281 174.585938 763.421875 C 175.105469 764.855469 175.707031 766.253906 176.386719 767.617188 C 176.386719 767.617188 339.199219 1104.566406 644.996094 1104.566406 C 950.789062 1104.566406 1113.601562 767.617188 1113.601562 767.617188 C 1114.285156 766.253906 1114.886719 764.855469 1115.40625 763.421875 C 1115.925781 761.988281 1116.359375 760.53125 1116.707031 759.046875 C 1117.058594 757.5625 1117.324219 756.066406 1117.5 754.550781 C 1117.675781 753.039062 1117.761719 751.519531 1117.761719 749.996094 C 1117.761719 748.472656 1117.675781 746.953125 1117.5 745.4375 C 1117.324219 743.925781 1117.058594 742.425781 1116.707031 740.941406 C 1116.359375 739.457031 1115.925781 738 1115.40625 736.566406 C 1114.886719 735.136719 1114.285156 733.738281 1113.601562 732.375 C 1113.601562 732.375 950.789062 395.421875 644.996094 395.421875 Z M 644.996094 474.214844 C 875.996094 474.214844 1013.265625 718.855469 1030.269531 749.996094 C 1013.265625 781.136719 875.996094 1025.773438 644.996094 1025.773438 C 413.996094 1025.773438 276.726562 781.136719 259.722656 749.996094 C 276.726562 718.855469 413.996094 474.214844 644.996094 474.214844 Z M 644.996094 553.011719 C 582.617188 553.011719 530.820312 577.820312 497.332031 615.492188 C 463.847656 653.160156 448.011719 701.84375 448.011719 749.996094 C 448.011719 798.148438 463.847656 846.828125 497.332031 884.5 C 530.820312 922.167969 582.617188 946.980469 644.996094 946.980469 C 707.375 946.980469 759.171875 922.167969 792.65625 884.5 C 826.140625 846.828125 841.980469 798.148438 841.980469 749.996094 C 841.980469 701.84375 826.140625 653.160156 792.65625 615.492188 C 759.171875 577.820312 707.375 553.011719 644.996094 553.011719 Z M 644.996094 631.804688 C 687.675781 631.804688 714.671875 646.390625 733.714844 667.816406 C 752.757812 689.238281 763.1875 719.351562 763.1875 749.996094 C 763.1875 780.636719 752.757812 810.75 733.714844 832.175781 C 714.671875 853.597656 687.675781 868.1875 644.996094 868.1875 C 602.316406 868.1875 575.320312 853.597656 556.273438 832.175781 C 537.230469 810.75 526.804688 780.636719 526.804688 749.996094 C 526.804688 719.351562 537.230469 689.238281 556.273438 667.816406 C 575.320312 646.390625 602.316406 631.804688 644.996094 631.804688 Z M 644.996094 631.804688 " fill-opacity="1" fill-rule="nonzero"/></g></g></g></svg>