<svg xmlns="http://www.w3.org/2000/svg" xmlns:xlink="http://www.w3.org/1999/xlink" width="1800" zoomAndPan="magnify" viewBox="0 0 1350 1499.999933" height="2000" preserveAspectRatio="xMidYMid meet" version="1.0"><defs><clipPath id="de7360b037"><path d="M 0.46875 0 L 1289.53125 0 L 1289.53125 1500 L 0.46875 1500 Z M 0.46875 0 " clip-rule="nonzero"/></clipPath><clipPath id="fee1cede07"><path d="M 645 1500 L 0.46875 1125 L 0.46875 375 L 645 0 L 1289.53125 375 L 1289.53125 1125 Z M 645 1500 " clip-rule="nonzero"/></clipPath><clipPath id="e9d6098eec"><path d="M 0.46875 0 L 1289.53125 0 L 1289.53125 1500 L 0.46875 1500 Z M 0.46875 0 " clip-rule="nonzero"/></clipPath><clipPath id="71b6925a2e"><path d="M 645 1500 L 0.46875 1125 L 0.46875 375 L 645 0 L 1289.53125 375 L 1289.53125 1125 Z M 645 1500 " clip-rule="nonzero"/></clipPath><clipPath id="4622a5fde3"><rect x="0" width="1290" y="0" height="1500"/></clipPath><clipPath id="58cd562142"><path d="M 194.164062 303.457031 L 1095.742188 303.457031 L 1095.742188 1126.089844 L 194.164062 1126.089844 Z M 194.164062 303.457031 " clip-rule="nonzero"/></clipPath><clipPath id="ae436244c3"><rect x="0" width="1290" y="0" height="1500"/></clipPath></defs><g transform="matrix(1, 0, 0, 1, 30, 0.000000000000112861)"><g clip-path="url(#ae436244c3)"><g clip-path="url(#de7360b037)"><g clip-path="url(#fee1cede07)"><g transform="matrix(1, 0, 0, 1, 0, 0.000000000000112861)"><g clip-path="url(#4622a5fde3)"><g clip-path="url(#e9d6098eec)"><g clip-path="url(#71b6925a2e)"><path fill="#e8292f" d="M 1289.53125 0 L 1289.53125 1500.550781 L 0.46875 1500.550781 L 0.46875 0 Z M 1289.53125 0 " fill-opacity="1" fill-rule="nonzero"/></g></g></g></g></g></g><g clip-path="url(#58cd562142)"><path fill="#e8292f" d="M 1461.980469 1165.488281 L 644.175781 1636.898438 L -176.472656 1170.351562 L -179.316406 232.488281 L 638.460938 -238.890625 L 1459.109375 227.621094 Z M 1461.980469 1165.488281 " fill-opacity="1" fill-rule="nonzero"/></g><path fill="#ffffff" d="M 641.332031 749.53125 C 751.5625 749.53125 840.925781 660.84375 840.925781 576.078125 L 441.710938 576.078125 C 441.769531 660.84375 531.101562 749.53125 641.363281 749.53125 Z M 641.332031 317.984375 C 531.128906 317.984375 441.738281 406.644531 441.738281 491.433594 L 840.984375 491.433594 C 840.925781 406.644531 751.59375 317.984375 641.363281 317.984375 Z M 692.386719 533.757812 C 692.386719 554.390625 708.683594 571.097656 728.820312 571.097656 C 748.894531 571.097656 765.191406 554.390625 765.191406 533.757812 C 765.191406 513.152344 748.867188 496.445312 728.820312 496.445312 C 708.683594 496.445312 692.386719 513.152344 692.386719 533.757812 Z M 692.386719 533.757812 " fill-opacity="1" fill-rule="nonzero"/><path fill="#ffffff" d="M 590.304688 533.757812 C 590.304688 534.980469 590.246094 536.199219 590.128906 537.417969 C 590.011719 538.632812 589.839844 539.84375 589.605469 541.042969 C 589.375 542.242188 589.085938 543.425781 588.738281 544.597656 C 588.390625 545.765625 587.992188 546.917969 587.535156 548.046875 C 587.078125 549.175781 586.570312 550.28125 586.007812 551.359375 C 585.445312 552.4375 584.832031 553.484375 584.171875 554.503906 C 583.507812 555.519531 582.800781 556.5 582.042969 557.445312 C 581.285156 558.390625 580.488281 559.296875 579.644531 560.160156 C 578.800781 561.023438 577.917969 561.84375 576.996094 562.621094 C 576.074219 563.398438 575.117188 564.125 574.128906 564.804688 C 573.136719 565.484375 572.113281 566.113281 571.0625 566.6875 C 570.011719 567.265625 568.933594 567.785156 567.835938 568.253906 C 566.734375 568.722656 565.613281 569.132812 564.46875 569.488281 C 563.328125 569.84375 562.175781 570.140625 561.003906 570.378906 C 559.835938 570.617188 558.65625 570.796875 557.472656 570.917969 C 556.285156 571.039062 555.097656 571.097656 553.902344 571.097656 C 552.710938 571.097656 551.523438 571.039062 550.335938 570.917969 C 549.148438 570.796875 547.972656 570.617188 546.800781 570.378906 C 545.632812 570.140625 544.476562 569.84375 543.335938 569.488281 C 542.195312 569.132812 541.074219 568.722656 539.972656 568.253906 C 538.871094 567.785156 537.796875 567.265625 536.746094 566.6875 C 535.691406 566.113281 534.671875 565.484375 533.679688 564.804688 C 532.6875 564.125 531.734375 563.398438 530.8125 562.621094 C 529.890625 561.84375 529.007812 561.023438 528.164062 560.160156 C 527.320312 559.296875 526.519531 558.390625 525.765625 557.445312 C 525.007812 556.5 524.300781 555.519531 523.636719 554.503906 C 522.972656 553.484375 522.363281 552.4375 521.800781 551.359375 C 521.238281 550.28125 520.730469 549.175781 520.273438 548.046875 C 519.816406 546.917969 519.414062 545.765625 519.070312 544.597656 C 518.722656 543.425781 518.433594 542.242188 518.203125 541.042969 C 517.96875 539.84375 517.792969 538.632812 517.675781 537.417969 C 517.5625 536.199219 517.503906 534.980469 517.503906 533.757812 C 517.503906 532.535156 517.5625 531.3125 517.675781 530.097656 C 517.792969 528.878906 517.96875 527.671875 518.203125 526.472656 C 518.433594 525.273438 518.722656 524.089844 519.070312 522.917969 C 519.414062 521.746094 519.816406 520.597656 520.273438 519.46875 C 520.730469 518.339844 521.238281 517.234375 521.800781 516.15625 C 522.363281 515.078125 522.972656 514.027344 523.636719 513.011719 C 524.300781 511.996094 525.007812 511.015625 525.765625 510.070312 C 526.519531 509.125 527.320312 508.21875 528.164062 507.355469 C 529.007812 506.488281 529.890625 505.667969 530.8125 504.894531 C 531.734375 504.117188 532.6875 503.390625 533.679688 502.710938 C 534.671875 502.03125 535.691406 501.402344 536.746094 500.828125 C 537.796875 500.25 538.871094 499.726562 539.972656 499.257812 C 541.074219 498.792969 542.195312 498.378906 543.335938 498.023438 C 544.476562 497.671875 545.632812 497.375 546.800781 497.132812 C 547.972656 496.894531 549.148438 496.71875 550.335938 496.597656 C 551.523438 496.476562 552.710938 496.417969 553.902344 496.417969 C 555.097656 496.417969 556.285156 496.476562 557.472656 496.597656 C 558.65625 496.71875 559.835938 496.894531 561.003906 497.132812 C 562.175781 497.375 563.328125 497.671875 564.46875 498.023438 C 565.613281 498.378906 566.734375 498.792969 567.835938 499.257812 C 568.933594 499.726562 570.011719 500.25 571.0625 500.828125 C 572.113281 501.402344 573.136719 502.03125 574.128906 502.710938 C 575.117188 503.390625 576.074219 504.117188 576.996094 504.894531 C 577.917969 505.667969 578.800781 506.488281 579.644531 507.355469 C 580.488281 508.21875 581.285156 509.125 582.042969 510.070312 C 582.800781 511.015625 583.507812 511.996094 584.171875 513.011719 C 584.832031 514.027344 585.445312 515.078125 586.007812 516.15625 C 586.570312 517.234375 587.078125 518.339844 587.535156 519.46875 C 587.992188 520.597656 588.390625 521.746094 588.738281 522.917969 C 589.085938 524.089844 589.375 525.273438 589.605469 526.472656 C 589.839844 527.671875 590.011719 528.878906 590.128906 530.097656 C 590.246094 531.3125 590.304688 532.535156 590.304688 533.757812 Z M 590.304688 533.757812 " fill-opacity="1" fill-rule="nonzero"/><path fill="#ffffff" d="M 1069.679688 952.90625 C 1067.757812 938.847656 1064.066406 925.265625 1058.601562 912.167969 L 224.03125 912.167969 C 218.558594 925.253906 214.855469 938.824219 212.925781 952.878906 C 212.015625 960.207031 211.222656 968.675781 210.460938 977.5 L 1072.171875 977.5 C 1071.503906 969.277344 1070.671875 961.070312 1069.679688 952.878906 Z M 923.460938 781.566406 L 359.261719 781.566406 C 325.820312 798.859375 293.671875 820.460938 267.730469 846.898438 L 1014.933594 846.898438 C 988.992188 820.460938 956.902344 798.828125 923.488281 781.539062 Z M 1075.75 1042.828125 L 206.855469 1042.828125 C 206.210938 1063.050781 205.800781 1085.003906 205.507812 1108.160156 L 1077.15625 1108.160156 C 1076.953125 1086.386719 1076.484375 1064.621094 1075.75 1042.859375 Z M 1075.75 1042.828125 " fill-opacity="1" fill-rule="nonzero"/></g></g></svg>