<svg xmlns="http://www.w3.org/2000/svg" xmlns:xlink="http://www.w3.org/1999/xlink" width="1800" zoomAndPan="magnify" viewBox="0 0 1350 1499.999933" height="2000" preserveAspectRatio="xMidYMid meet" version="1.0"><defs><clipPath id="1683b7726a"><path d="M 0.46875 0 L 1289.53125 0 L 1289.53125 1500 L 0.46875 1500 Z M 0.46875 0 " clip-rule="nonzero"/></clipPath><clipPath id="184ae41b04"><path d="M 645 1500 L 0.46875 1125 L 0.46875 375 L 645 0 L 1289.53125 375 L 1289.53125 1125 Z M 645 1500 " clip-rule="nonzero"/></clipPath><clipPath id="233b5193b6"><path d="M 0.46875 0 L 1289.53125 0 L 1289.53125 1500 L 0.46875 1500 Z M 0.46875 0 " clip-rule="nonzero"/></clipPath><clipPath id="7cb9ca4842"><path d="M 645 1500 L 0.46875 1125 L 0.46875 375 L 645 0 L 1289.53125 375 L 1289.53125 1125 Z M 645 1500 " clip-rule="nonzero"/></clipPath><clipPath id="a5d423a671"><rect x="0" width="1290" y="0" height="1500"/></clipPath><clipPath id="09fb3a2d74"><path d="M 250 353.753906 L 1039 353.753906 L 1039 1144 L 250 1144 Z M 250 353.753906 " clip-rule="nonzero"/></clipPath><clipPath id="c5d2298e73"><rect x="0" width="1290" y="0" height="1500"/></clipPath></defs><g transform="matrix(1, 0, 0, 1, 30, 0.000000000000112861)"><g clip-path="url(#c5d2298e73)"><g clip-path="url(#1683b7726a)"><g clip-path="url(#184ae41b04)"><g transform="matrix(1, 0, 0, 1, 0, 0.000000000000112861)"><g clip-path="url(#a5d423a671)"><g clip-path="url(#233b5193b6)"><g clip-path="url(#7cb9ca4842)"><path fill="#e8292f" d="M 1289.53125 0 L 1289.53125 1500.550781 L 0.46875 1500.550781 L 0.46875 0 Z M 1289.53125 0 " fill-opacity="1" fill-rule="nonzero"/></g></g></g></g></g></g><g clip-path="url(#09fb3a2d74)"><path fill="#ffffff" d="M 1000.65625 1119.941406 C 1008.546875 1118.1875 1014.683594 1112.050781 1016.4375 1104.160156 L 1038.351562 1016.496094 C 1040.105469 1008.605469 1038.351562 1000.71875 1032.214844 995.457031 L 697.339844 660.582031 C 706.105469 636.035156 710.488281 610.613281 710.488281 584.3125 C 710.488281 457.199219 607.046875 353.753906 479.933594 353.753906 C 352.820312 353.753906 250.253906 457.199219 250.253906 584.3125 C 250.253906 711.425781 353.695312 814.867188 480.808594 814.867188 C 507.109375 814.867188 532.53125 810.484375 557.078125 801.71875 L 629.839844 874.480469 C 632.46875 877.109375 635.097656 878.863281 638.605469 879.742188 L 693.832031 898.148438 L 712.242188 953.378906 C 713.996094 959.515625 719.253906 964.773438 726.269531 967.40625 L 781.496094 985.8125 L 799.90625 1041.042969 C 802.535156 1049.808594 811.304688 1055.945312 820.945312 1055.945312 L 886.695312 1055.945312 L 886.695312 1121.691406 C 886.695312 1135.71875 899.84375 1146.238281 913.871094 1142.734375 Z M 929.648438 1033.152344 C 929.648438 1020.878906 920.007812 1011.238281 907.734375 1011.238281 L 835.847656 1011.238281 L 819.191406 960.390625 C 817.441406 954.253906 812.179688 948.996094 805.167969 946.363281 L 749.9375 927.957031 L 731.527344 872.726562 C 729.777344 866.589844 724.515625 861.332031 717.503906 858.699219 L 657.015625 838.539062 L 578.117188 759.640625 C 571.980469 753.503906 562.335938 751.75 553.570312 755.257812 C 530.777344 764.902344 505.355469 770.160156 479.933594 770.160156 C 377.367188 770.160156 294.085938 686.878906 294.085938 584.3125 C 294.085938 481.746094 377.367188 397.585938 479.933594 397.585938 C 582.5 397.585938 666.65625 480.867188 666.65625 584.3125 C 666.65625 609.734375 661.398438 634.28125 651.753906 657.949219 C 648.246094 665.839844 650 675.484375 656.136719 682.496094 L 992.769531 1019.125 L 976.988281 1082.246094 L 929.648438 1094.515625 Z M 929.648438 1033.152344 " fill-opacity="1" fill-rule="nonzero"/></g><path fill="#ffffff" d="M 488.699219 529.085938 C 488.699219 494.019531 460.648438 465.964844 425.582031 465.964844 C 390.515625 465.964844 362.464844 494.019531 362.464844 529.085938 C 362.464844 564.148438 390.515625 592.203125 425.582031 592.203125 C 460.648438 592.203125 488.699219 564.148438 488.699219 529.085938 Z M 406.296875 529.085938 C 406.296875 518.5625 415.0625 509.796875 425.582031 509.796875 C 436.101562 509.796875 444.867188 518.5625 444.867188 529.085938 C 444.867188 539.605469 436.101562 548.371094 425.582031 548.371094 C 415.0625 548.371094 406.296875 539.605469 406.296875 529.085938 Z M 406.296875 529.085938 " fill-opacity="1" fill-rule="nonzero"/></g></g></svg>