<svg xmlns="http://www.w3.org/2000/svg" xmlns:xlink="http://www.w3.org/1999/xlink" width="1800" zoomAndPan="magnify" viewBox="0 0 1350 1499.999933" height="2000" preserveAspectRatio="xMidYMid meet" version="1.0"><defs><clipPath id="36495e4e7d"><path d="M 0.46875 0 L 1289.53125 0 L 1289.53125 1500 L 0.46875 1500 Z M 0.46875 0 " clip-rule="nonzero"/></clipPath><clipPath id="f9ac1b4c19"><path d="M 645 1500 L 0.46875 1125 L 0.46875 375 L 645 0 L 1289.53125 375 L 1289.53125 1125 Z M 645 1500 " clip-rule="nonzero"/></clipPath><clipPath id="7f5945f515"><path d="M 0.46875 0 L 1289.53125 0 L 1289.53125 1500 L 0.46875 1500 Z M 0.46875 0 " clip-rule="nonzero"/></clipPath><clipPath id="3c9b6a6096"><path d="M 645 1500 L 0.46875 1125 L 0.46875 375 L 645 0 L 1289.53125 375 L 1289.53125 1125 Z M 645 1500 " clip-rule="nonzero"/></clipPath><clipPath id="aa533c3990"><rect x="0" width="1290" y="0" height="1500"/></clipPath><clipPath id="ffbe536538"><path d="M 217.066406 322.066406 L 1072.855469 322.066406 L 1072.855469 1177.855469 L 217.066406 1177.855469 Z M 217.066406 322.066406 " clip-rule="nonzero"/></clipPath><clipPath id="4e8b9672a1"><rect x="0" width="1290" y="0" height="1500"/></clipPath></defs><g transform="matrix(1, 0, 0, 1, 30, 0.000000000000112861)"><g clip-path="url(#4e8b9672a1)"><g clip-path="url(#36495e4e7d)"><g clip-path="url(#f9ac1b4c19)"><g transform="matrix(1, 0, 0, 1, 0, 0.000000000000112861)"><g clip-path="url(#aa533c3990)"><g clip-path="url(#7f5945f515)"><g clip-path="url(#3c9b6a6096)"><path fill="#e8292f" d="M 1289.53125 0 L 1289.53125 1500.550781 L 0.46875 1500.550781 L 0.46875 0 Z M 1289.53125 0 " fill-opacity="1" fill-rule="nonzero"/></g></g></g></g></g></g><g clip-path="url(#ffbe536538)"><path fill="#ffffff" d="M 944.488281 322.066406 L 345.433594 322.066406 C 272.691406 322.066406 217.066406 377.691406 217.066406 450.433594 L 217.066406 1049.488281 C 217.066406 1122.230469 272.691406 1177.855469 345.433594 1177.855469 L 944.488281 1177.855469 C 1017.230469 1177.855469 1072.855469 1122.230469 1072.855469 1049.488281 L 1072.855469 450.433594 C 1072.855469 377.691406 1017.230469 322.066406 944.488281 322.066406 Z M 987.277344 1049.488281 C 987.277344 1075.160156 970.160156 1092.277344 944.488281 1092.277344 L 345.433594 1092.277344 C 319.761719 1092.277344 302.644531 1075.160156 302.644531 1049.488281 L 302.644531 450.433594 C 302.644531 424.761719 319.761719 407.644531 345.433594 407.644531 L 944.488281 407.644531 C 970.160156 407.644531 987.277344 424.761719 987.277344 450.433594 Z M 987.277344 1049.488281 " fill-opacity="1" fill-rule="nonzero"/></g><path fill="#ffffff" d="M 388.222656 536.011719 L 473.800781 536.011719 L 473.800781 621.59375 L 388.222656 621.59375 Z M 559.382812 536.011719 L 901.699219 536.011719 L 901.699219 621.59375 L 559.382812 621.59375 Z M 388.222656 707.171875 L 473.800781 707.171875 L 473.800781 792.75 L 388.222656 792.75 Z M 559.382812 707.171875 L 901.699219 707.171875 L 901.699219 792.75 L 559.382812 792.75 Z M 388.222656 878.328125 L 473.800781 878.328125 L 473.800781 963.90625 L 388.222656 963.90625 Z M 559.382812 878.328125 L 901.699219 878.328125 L 901.699219 963.90625 L 559.382812 963.90625 Z M 559.382812 878.328125 " fill-opacity="1" fill-rule="nonzero"/></g></g></svg>