<svg xmlns="http://www.w3.org/2000/svg" xmlns:xlink="http://www.w3.org/1999/xlink" width="1800" zoomAndPan="magnify" viewBox="0 0 1350 1499.999933" height="2000" preserveAspectRatio="xMidYMid meet" version="1.0"><defs><clipPath id="c4a84c6300"><path d="M 0.46875 0 L 1289.53125 0 L 1289.53125 1500 L 0.46875 1500 Z M 0.46875 0 " clip-rule="nonzero"/></clipPath><clipPath id="431a4aa484"><path d="M 645 1500 L 0.46875 1125 L 0.46875 375 L 645 0 L 1289.53125 375 L 1289.53125 1125 Z M 645 1500 " clip-rule="nonzero"/></clipPath><clipPath id="bd260ba295"><path d="M 0.46875 0 L 1289.53125 0 L 1289.53125 1500 L 0.46875 1500 Z M 0.46875 0 " clip-rule="nonzero"/></clipPath><clipPath id="42ad37a5b9"><path d="M 645 1500 L 0.46875 1125 L 0.46875 375 L 645 0 L 1289.53125 375 L 1289.53125 1125 Z M 645 1500 " clip-rule="nonzero"/></clipPath><clipPath id="ea54b97a5a"><rect x="0" width="1290" y="0" height="1500"/></clipPath><clipPath id="1656833d26"><path d="M 223 313.640625 L 1067 313.640625 L 1067 1064.429688 L 223 1064.429688 Z M 223 313.640625 " clip-rule="nonzero"/></clipPath><clipPath id="57c1830494"><rect x="0" width="1290" y="0" height="1500"/></clipPath></defs><g transform="matrix(1, 0, 0, 1, 30, 0.000000000000112861)"><g clip-path="url(#57c1830494)"><g clip-path="url(#c4a84c6300)"><g clip-path="url(#431a4aa484)"><g transform="matrix(1, 0, 0, 1, 0, 0.000000000000112861)"><g clip-path="url(#ea54b97a5a)"><g clip-path="url(#bd260ba295)"><g clip-path="url(#42ad37a5b9)"><path fill="#e8292f" d="M 1289.53125 0 L 1289.53125 1500.550781 L 0.46875 1500.550781 L 0.46875 0 Z M 1289.53125 0 " fill-opacity="1" fill-rule="nonzero"/></g></g></g></g></g></g><g clip-path="url(#1656833d26)"><path fill="#ffffff" d="M 1055.664062 942.066406 L 885.609375 649.628906 L 715.558594 355.121094 C 698.964844 328.160156 672.007812 313.640625 645.046875 313.640625 C 618.085938 313.640625 589.054688 328.160156 574.535156 355.121094 L 404.480469 647.558594 L 234.425781 942.066406 C 203.320312 995.988281 242.722656 1064.429688 307.011719 1064.429688 L 983.082031 1064.429688 C 1047.371094 1064.429688 1086.773438 995.988281 1055.664062 942.066406 Z M 978.933594 1029.171875 L 311.160156 1029.171875 C 273.832031 1029.171875 251.019531 989.765625 269.683594 956.582031 L 601.496094 380.011719 C 620.160156 348.898438 665.785156 348.898438 684.449219 380.011719 L 1016.261719 956.582031 C 1039.074219 989.765625 1014.1875 1029.171875 978.933594 1029.171875 Z M 978.933594 1029.171875 " fill-opacity="1" fill-rule="nonzero"/></g><path fill="#ffffff" d="M 645.046875 927.546875 C 630.53125 927.546875 618.085938 921.324219 607.71875 910.957031 C 597.347656 900.585938 593.199219 888.140625 593.199219 871.550781 C 593.199219 857.03125 597.347656 842.511719 607.71875 832.144531 C 618.085938 821.773438 630.53125 815.550781 645.046875 815.550781 C 659.5625 815.550781 672.007812 821.773438 682.375 832.144531 C 692.746094 842.511719 696.890625 854.957031 696.890625 871.550781 C 696.890625 886.066406 692.746094 900.585938 682.375 910.957031 C 672.007812 921.324219 659.5625 927.546875 645.046875 927.546875 Z M 616.011719 792.738281 L 603.570312 647.558594 L 599.421875 570.820312 L 688.597656 570.820312 L 684.449219 647.558594 L 672.007812 792.738281 Z M 616.011719 792.738281 " fill-opacity="1" fill-rule="nonzero"/></g></g></svg>